<svg width="185" height="238" viewBox="0 0 185 238" fill="none" xmlns="http://www.w3.org/2000/svg">
<path fill-rule="evenodd" clip-rule="evenodd" d="M98.7765 0.0545222C98.2249 0.0279721 97.7562 0.453647 97.7296 1.00529C97.7031 1.55694 98.1287 2.02566 98.6804 2.05221C102.135 2.21847 105.525 2.6581 108.821 3.38622C109.36 3.50537 109.894 3.16479 110.013 2.62551C110.132 2.08623 109.791 1.55247 109.252 1.43332C105.84 0.679444 102.337 0.225891 98.7765 0.0545222ZM88.425 2.33137C88.9746 2.27681 89.3758 1.78705 89.3213 1.23747C89.2667 0.687885 88.777 0.286593 88.2274 0.341156C84.7823 0.683188 81.3131 1.26193 77.847 2.06245C77.3088 2.18673 76.9734 2.72371 77.0976 3.26183C77.2219 3.79995 77.7589 4.13543 78.297 4.01115C81.6842 3.22887 85.0691 2.66455 88.425 2.33137ZM119.322 4.67445C118.816 4.4551 118.227 4.68817 118.008 5.19503C117.788 5.70189 118.021 6.29059 118.528 6.50994C120.087 7.18464 121.614 7.93778 123.105 8.77144C123.587 9.04098 124.196 8.86871 124.466 8.38666C124.735 7.90462 124.563 7.29534 124.081 7.0258C122.53 6.15862 120.943 5.37559 119.322 4.67445ZM68.4101 6.90799C68.9305 6.72326 69.2027 6.15158 69.018 5.63111C68.8333 5.11063 68.2616 4.83846 67.7411 5.02319C64.4752 6.18235 61.235 7.52933 58.0438 9.05169C57.5453 9.28948 57.334 9.88635 57.5718 10.3848C57.8096 10.8833 58.4065 11.0946 58.9049 10.8568C62.0352 9.36351 65.2113 8.04332 68.4101 6.90799ZM49.825 15.7535C50.2977 15.468 50.4495 14.8533 50.164 14.3806C49.8785 13.9078 49.2638 13.756 48.7911 14.0415C45.8115 15.841 42.8989 17.7943 40.0744 19.8905C39.631 20.2196 39.5383 20.8459 39.8674 21.2894C40.1965 21.7329 40.8229 21.8256 41.2664 21.4965C44.04 19.4381 46.8999 17.5201 49.825 15.7535ZM33.2837 28.0298C33.694 27.6601 33.7269 27.0278 33.3571 26.6175C32.9874 26.2073 32.3551 26.1744 31.9448 26.5441C29.3473 28.8851 26.8561 31.3551 24.4918 33.9437C24.1193 34.3515 24.148 34.984 24.5558 35.3565C24.9635 35.7289 25.5961 35.7003 25.9685 35.2925C28.2883 32.7526 30.7335 30.3282 33.2837 28.0298ZM19.4105 43.2408C19.7397 42.7973 19.6471 42.171 19.2037 41.8417C18.7603 41.5125 18.1339 41.6051 17.8047 42.0485C15.714 44.8643 13.7706 47.7885 11.9955 50.8106C11.7158 51.2868 11.8751 51.8996 12.3513 52.1793C12.8275 52.459 13.4403 52.2998 13.72 51.8235C15.4577 48.8653 17.3612 46.0008 19.4105 43.2408ZM9.02101 60.9767C9.24428 60.4716 9.01577 59.8811 8.51062 59.6578C8.00548 59.4346 7.41499 59.6631 7.19172 60.1682C5.77517 63.3732 4.54739 66.6655 3.52935 70.0342C3.36958 70.5629 3.66864 71.1209 4.19731 71.2807C4.72598 71.4405 5.28407 71.1414 5.44384 70.6128C6.43744 67.3249 7.63644 64.1094 9.02101 60.9767ZM3.1103 80.6144C3.20045 80.0695 2.83182 79.5547 2.28694 79.4646C1.74206 79.3744 1.22727 79.7431 1.13713 80.288C0.568499 83.7249 0.221026 87.2245 0.11423 90.7764C0.0976318 91.3284 0.531689 91.7894 1.08372 91.806C1.63576 91.8226 2.09673 91.3885 2.11333 90.8365C2.21739 87.3756 2.55597 83.965 3.1103 80.6144ZM146.64 84.3113C146.088 84.2892 145.623 84.7187 145.601 85.2705C145.579 85.8223 146.008 86.2876 146.56 86.3097C149.715 86.436 152.914 86.9747 156.13 87.9671C156.657 88.1299 157.217 87.8341 157.38 87.3064C157.543 86.7786 157.247 86.2188 156.719 86.056C153.34 85.0131 149.97 84.4446 146.64 84.3113ZM136.876 87.2097C137.415 87.0878 137.752 86.5522 137.63 86.0136C137.508 85.4749 136.973 85.1372 136.434 85.2591C133.13 86.0075 129.909 87.171 126.802 88.7016C126.306 88.9457 126.103 89.5452 126.347 90.0406C126.591 90.536 127.19 90.7398 127.686 90.4957C130.661 89.0298 133.735 87.9212 136.876 87.2097ZM166.068 90.1807C165.59 89.9041 164.979 90.0675 164.702 90.5455C164.425 91.0236 164.589 91.6353 165.067 91.9118C166.456 92.7154 167.844 93.6106 169.23 94.601C170.641 95.6093 171.93 96.662 173.102 97.754C173.506 98.1305 174.138 98.1082 174.515 97.7041C174.891 97.3001 174.869 96.6673 174.465 96.2908C173.227 95.1372 171.871 94.0301 170.393 92.9738C168.957 91.9474 167.515 91.0173 166.068 90.1807ZM119.382 95.6943C119.82 95.358 119.902 94.7303 119.566 94.2922C119.23 93.8541 118.602 93.7715 118.164 94.1078C115.529 96.1307 113.015 98.4273 110.646 100.961C110.269 101.365 110.29 101.998 110.693 102.375C111.097 102.752 111.73 102.731 112.107 102.327C114.406 99.8681 116.839 97.6463 119.382 95.6943ZM2.49377 101.081C2.43645 100.532 1.94468 100.133 1.39538 100.19C0.846077 100.247 0.447251 100.739 0.504577 101.289C0.862492 104.718 1.45033 108.184 2.28395 111.678C2.41212 112.215 2.95152 112.547 3.48873 112.419C4.02593 112.29 4.35752 111.751 4.22934 111.214C3.4158 107.804 2.84264 104.424 2.49377 101.081ZM180.921 104.477C180.654 103.993 180.046 103.817 179.562 104.084C179.079 104.35 178.902 104.958 179.169 105.442C180.776 108.36 181.803 111.45 182.302 114.658C182.387 115.204 182.898 115.577 183.444 115.493C183.99 115.408 184.363 114.897 184.278 114.351C183.745 110.92 182.644 107.606 180.921 104.477ZM105.894 110.015C106.211 109.562 106.101 108.939 105.649 108.622C105.196 108.305 104.573 108.415 104.256 108.868C102.353 111.586 100.591 114.476 98.9871 117.513C98.7291 118.001 98.916 118.606 99.4044 118.864C99.8927 119.122 100.498 118.935 100.756 118.447C102.321 115.482 104.041 112.662 105.894 110.015ZM7.22981 121.05C7.03718 120.533 6.46143 120.269 5.94383 120.462C5.42622 120.655 5.16278 121.23 5.35541 121.748C6.54207 124.937 7.94024 128.14 9.56128 131.353C9.81006 131.846 10.4115 132.045 10.9045 131.796C11.3976 131.547 11.5957 130.946 11.3469 130.452C9.75841 127.304 8.39006 124.168 7.22981 121.05ZM184.256 124.759C184.336 124.213 183.959 123.705 183.412 123.624C182.866 123.543 182.358 123.921 182.277 124.467C181.812 127.617 180.93 130.825 179.666 134.042C179.464 134.556 179.717 135.137 180.232 135.339C180.746 135.541 181.326 135.288 181.528 134.774C182.841 131.43 183.766 128.076 184.256 124.759ZM96.6468 127.469C96.8465 126.954 96.591 126.375 96.076 126.175C95.5611 125.976 94.9818 126.231 94.7821 126.746C93.5776 129.852 92.5301 133.065 91.6552 136.362C91.5136 136.896 91.8315 137.443 92.3653 137.585C92.8991 137.727 93.4467 137.409 93.5883 136.875C94.4443 133.649 95.469 130.506 96.6468 127.469ZM16.4419 139.393C16.1454 138.927 15.5273 138.79 15.0614 139.086C14.5954 139.383 14.458 140.001 14.7545 140.467C15.6913 141.939 16.6769 143.412 17.7121 144.885C18.7269 146.329 19.7528 147.733 20.7892 149.096C21.1234 149.536 21.7507 149.621 22.1904 149.287C22.6301 148.953 22.7157 148.326 22.3815 147.886C21.3603 146.542 20.3491 145.159 19.3484 143.735C18.3305 142.287 17.362 140.839 16.4419 139.393ZM176.922 143.989C177.208 143.516 177.058 142.901 176.586 142.615C176.114 142.328 175.499 142.479 175.212 142.951C173.533 145.717 171.594 148.453 169.422 151.126C169.074 151.555 169.139 152.185 169.568 152.533C169.996 152.881 170.626 152.816 170.975 152.387C173.2 149.648 175.192 146.838 176.922 143.989ZM91.5723 146.581C91.6549 146.035 91.2793 145.526 90.7333 145.443C90.1872 145.36 89.6775 145.736 89.5948 146.282C89.0941 149.588 88.767 152.951 88.6276 156.353C88.605 156.905 89.034 157.37 89.5858 157.393C90.1376 157.416 90.6033 156.987 90.6259 156.435C90.7623 153.107 91.0823 149.816 91.5723 146.581ZM28.7731 155.644C28.4048 155.233 27.7726 155.198 27.361 155.566C26.9495 155.934 26.9143 156.566 27.2826 156.978C29.6233 159.594 32.0079 162.029 34.43 164.291C34.8337 164.667 35.4665 164.646 35.8434 164.242C36.2203 163.838 36.1986 163.206 35.7949 162.829C33.4177 160.609 31.075 158.217 28.7731 155.644ZM164.04 159.958C164.436 159.573 164.444 158.94 164.058 158.544C163.673 158.149 163.04 158.141 162.644 158.526C160.287 160.824 157.757 163.044 155.076 165.161C154.642 165.503 154.568 166.132 154.911 166.565C155.253 166.999 155.882 167.073 156.315 166.731C159.05 164.572 161.632 162.306 164.04 159.958ZM90.7691 166.336C90.7303 165.785 90.2523 165.37 89.7013 165.409C89.1504 165.448 88.7352 165.926 88.774 166.477C89.0091 169.816 89.4323 173.173 90.0565 176.529C90.1575 177.072 90.6796 177.43 91.2225 177.329C91.7655 177.228 92.1238 176.706 92.0228 176.163C91.4127 172.884 90.9989 169.602 90.7691 166.336ZM43.4644 169.314C43.0251 168.98 42.3976 169.064 42.0629 169.504C41.7281 169.943 41.8129 170.57 42.2522 170.905C45.0445 173.033 47.8751 174.952 50.7349 176.674C51.2081 176.958 51.8226 176.806 52.1074 176.333C52.3922 175.859 52.2395 175.245 51.7663 174.96C48.9698 173.277 46.1995 171.399 43.4644 169.314ZM147.975 172.672C148.44 172.374 148.575 171.756 148.277 171.291C147.979 170.826 147.36 170.691 146.895 170.989C144.1 172.782 141.187 174.461 138.174 176.007C137.683 176.259 137.489 176.862 137.741 177.353C137.993 177.845 138.596 178.039 139.087 177.787C142.158 176.211 145.126 174.5 147.975 172.672ZM60.6461 179.626C60.1429 179.399 59.5504 179.622 59.3228 180.125C59.0952 180.629 59.3186 181.221 59.8218 181.449C63.0004 182.886 66.2017 184.101 69.414 185.105C69.9411 185.269 70.502 184.976 70.6668 184.449C70.8316 183.921 70.5378 183.36 70.0107 183.196C66.8756 182.216 63.7503 181.031 60.6461 179.626ZM129.743 182.022C130.256 181.819 130.508 181.238 130.305 180.724C130.102 180.211 129.521 179.959 129.007 180.162C125.908 181.388 122.731 182.469 119.492 183.386C118.961 183.537 118.652 184.09 118.803 184.621C118.953 185.152 119.506 185.461 120.037 185.311C123.343 184.374 126.583 183.272 129.743 182.022ZM94.3866 185.761C94.2237 185.233 93.6639 184.938 93.1362 185.1C92.6084 185.263 92.3126 185.823 92.4755 186.351C93.4584 189.536 94.6358 192.704 96.0188 195.839C96.2418 196.344 96.8321 196.573 97.3374 196.35C97.8427 196.127 98.0716 195.537 97.8486 195.031C96.4973 191.969 95.3469 188.873 94.3866 185.761ZM79.7365 185.589C79.1931 185.491 78.6726 185.851 78.5739 186.394C78.4751 186.938 78.8356 187.458 79.379 187.557C82.7817 188.175 86.1821 188.575 89.5661 188.772C90.1175 188.805 90.5905 188.384 90.6227 187.832C90.6549 187.281 90.2341 186.808 89.6827 186.776C86.3775 186.583 83.0577 186.193 79.7365 185.589ZM110.036 187.586C110.58 187.492 110.946 186.975 110.852 186.431C110.758 185.886 110.241 185.521 109.697 185.615C106.411 186.18 103.081 186.57 99.7209 186.769C99.1695 186.801 98.749 187.274 98.7815 187.826C98.814 188.377 99.2873 188.798 99.8386 188.765C103.275 188.562 106.679 188.163 110.036 187.586ZM102.368 203.854C102.088 203.378 101.475 203.218 100.999 203.498C100.523 203.778 100.363 204.39 100.643 204.867C102.318 207.72 104.181 210.531 106.242 213.285C106.573 213.728 107.199 213.818 107.642 213.487C108.084 213.156 108.174 212.529 107.843 212.087C105.827 209.392 104.005 206.644 102.368 203.854ZM114.183 219.677C113.807 219.272 113.174 219.249 112.77 219.625C112.365 220.001 112.341 220.633 112.717 221.038C114.955 223.448 117.365 225.801 119.953 228.086C120.367 228.452 120.999 228.413 121.364 227.999C121.73 227.585 121.691 226.953 121.277 226.587C118.737 224.345 116.375 222.038 114.183 219.677ZM129.005 232.799C128.559 232.473 127.933 232.57 127.607 233.015C127.281 233.461 127.377 234.087 127.823 234.413C128.238 234.717 128.656 235.019 129.079 235.32L127.824 235.206C127.274 235.156 126.787 235.561 126.737 236.111C126.687 236.661 127.092 237.147 127.642 237.197L133.838 237.763L135.196 237.887L134.906 236.555L133.756 231.263C133.639 230.723 133.106 230.381 132.566 230.498C132.027 230.615 131.684 231.148 131.801 231.688L132.592 235.324C131.366 234.495 130.17 233.653 129.005 232.799ZM130.304 215.387C130.187 214.847 129.655 214.504 129.115 214.622C128.575 214.739 128.233 215.272 128.35 215.811L129.501 221.103C129.618 221.643 130.151 221.986 130.69 221.868C131.23 221.751 131.572 221.218 131.455 220.679L130.304 215.387ZM109.235 233.509C108.685 233.459 108.199 233.864 108.148 234.414C108.098 234.964 108.503 235.45 109.053 235.501L115.25 236.066C115.8 236.116 116.286 235.711 116.336 235.161C116.387 234.611 115.981 234.125 115.431 234.075L109.235 233.509Z" fill="#35977D"/>
</svg>
