<svg width="144" height="145" viewBox="0 0 144 145" fill="none" xmlns="http://www.w3.org/2000/svg">
<path d="M41.1802 101.814C41.5226 102.198 41.7658 102.611 41.91 103.055C42.0488 103.503 42.0929 103.949 42.0424 104.392C41.9919 104.835 41.8562 105.243 41.6354 105.615L40.7373 105.18C40.9957 104.687 41.1023 104.204 41.0572 103.73C41.0019 103.255 40.8006 102.823 40.4534 102.435C40.2413 102.197 40.0179 102.023 39.7832 101.913C39.5485 101.802 39.3204 101.759 39.0987 101.782C38.8667 101.805 38.659 101.898 38.4756 102.062C38.2219 102.289 38.0874 102.54 38.0719 102.816C38.0461 103.091 38.1184 103.4 38.2888 103.743L38.9397 105.156C39.1954 105.713 39.2812 106.238 39.1971 106.731C39.113 107.223 38.8821 107.638 38.5044 107.976C38.1752 108.27 37.8166 108.45 37.4285 108.515C37.0303 108.58 36.6356 108.534 36.2446 108.379C35.8433 108.223 35.4811 107.965 35.1581 107.603C34.835 107.242 34.6081 106.857 34.4772 106.45C34.3415 106.038 34.2927 105.63 34.3307 105.227C34.3633 104.829 34.4765 104.456 34.6703 104.108L35.5612 104.535C35.337 104.969 35.2542 105.392 35.313 105.805C35.3663 106.223 35.5497 106.608 35.8632 106.959C36.056 107.174 36.265 107.332 36.49 107.432C36.7048 107.531 36.9234 107.564 37.1456 107.53C37.3577 107.496 37.5581 107.395 37.747 107.226C37.9683 107.028 38.1026 106.782 38.1499 106.487C38.1972 106.193 38.1389 105.862 37.9751 105.494L37.3705 104.214C37.0919 103.609 36.979 103.065 37.0318 102.581C37.0847 102.097 37.3108 101.676 37.7101 101.32C38.0393 101.025 38.4078 100.851 38.8157 100.797C39.2189 100.738 39.6283 100.794 40.044 100.966C40.4495 101.138 40.8282 101.421 41.1802 101.814Z" fill="#f1faf8"/>
<path d="M36.7399 95.9268C37.0377 96.4063 37.1893 96.9042 37.1947 97.4205C37.2001 97.9367 37.0729 98.4246 36.8131 98.8841C36.5471 99.3474 36.1682 99.7318 35.6764 100.037C35.1784 100.346 34.6709 100.517 34.1538 100.548C33.6328 100.574 33.1491 100.474 32.7025 100.248C32.246 100.021 31.8765 99.6795 31.5939 99.2246C31.3649 98.8557 31.2302 98.4879 31.1898 98.1211C31.1395 97.752 31.167 97.3985 31.2723 97.0605C31.3676 96.7202 31.5273 96.408 31.7513 96.1241C31.9654 95.8378 32.2261 95.5992 32.5335 95.4083C32.6011 95.3663 32.6818 95.3248 32.7755 95.2836C32.8593 95.2401 32.9418 95.2016 33.0232 95.1681L35.5544 99.2441L34.8167 99.7022L32.5947 96.1242L33.1787 96.3238C32.8246 96.467 32.5579 96.6753 32.3783 96.9486C32.1988 97.2219 32.1059 97.5181 32.0996 97.8372C32.0933 98.1563 32.1799 98.4604 32.3593 98.7493C32.5388 99.0382 32.7767 99.2568 33.0731 99.4049C33.3696 99.5531 33.6981 99.6089 34.0588 99.5723C34.4094 99.5334 34.7646 99.3853 35.1244 99.1278C35.5024 98.9271 35.7877 98.6733 35.9804 98.3662C36.1631 98.0568 36.253 97.7284 36.2502 97.3809C36.2374 97.0311 36.1374 96.7055 35.9504 96.4043C35.7442 96.0723 35.4936 95.8403 35.1987 95.7083C34.9037 95.5763 34.5925 95.514 34.2649 95.5215L34.1871 94.5731C34.4757 94.5302 34.7801 94.5541 35.1005 94.6448C35.4109 94.7332 35.7093 94.8844 35.9955 95.0984C36.278 95.3064 36.5261 95.5825 36.7399 95.9268Z" fill="#f1faf8"/>
<path d="M34.5641 92.8556L29.0736 94.8773L28.7323 93.9503L29.8528 93.5377L29.7284 93.7339C29.332 93.7256 28.9872 93.6058 28.6938 93.3745C28.4004 93.1432 28.1849 92.8408 28.0474 92.4673C27.8899 92.0395 27.8674 91.6121 27.9801 91.185C28.0903 90.7511 28.3151 90.3984 28.6547 90.1269L28.7624 90.3879C28.2821 90.4029 27.8707 90.2806 27.5284 90.021C27.1793 89.764 26.9284 89.4284 26.7759 89.0141C26.6359 88.6338 26.5979 88.2584 26.6619 87.8878C26.7235 87.5104 26.8767 87.1725 27.1215 86.8741C27.3664 86.5757 27.6858 86.354 28.0797 86.209L31.6347 84.8999L31.9873 85.8575L28.7378 87.054C28.4322 87.1665 28.1942 87.3158 28.0237 87.502C27.8532 87.6882 27.7452 87.8976 27.6997 88.1303C27.645 88.3586 27.6639 88.5984 27.7564 88.8497C27.8465 89.0942 27.9888 89.2924 28.1836 89.4443C28.3691 89.592 28.5917 89.6835 28.8515 89.7189C29.1021 89.7501 29.3767 89.7106 29.6755 89.6006L32.925 88.4041L33.2776 89.3616L30.0281 90.5581C29.7225 90.6706 29.4845 90.82 29.3139 91.0062C29.1434 91.1923 29.0355 91.4018 28.99 91.6344C28.9353 91.8628 28.9542 92.1026 29.0467 92.3539C29.1367 92.5983 29.2791 92.7965 29.4739 92.9485C29.6593 93.0961 29.882 93.1876 30.1418 93.2231C30.3923 93.2542 30.667 93.2148 30.9658 93.1047L34.2153 91.9082L34.5641 92.8556Z" fill="#f1faf8"/>
<path d="M31.0614 80.6282C31.1418 81.1869 31.0855 81.7105 30.8926 82.1989C30.6925 82.6883 30.3823 83.0985 29.962 83.4295C29.5418 83.7605 29.0415 83.9677 28.4613 84.0512C27.8811 84.1347 27.3468 84.08 26.8585 83.8871C26.3691 83.687 25.9594 83.3804 25.6294 82.9673C25.2994 82.5541 25.0937 82.0646 25.0123 81.4988C24.9319 80.94 24.9917 80.416 25.1918 79.9266C25.3847 79.4382 25.6883 79.0326 26.1024 78.7098C26.5156 78.3798 27.0158 78.1726 27.6032 78.0881C28.1905 78.0035 28.733 78.0644 29.2306 78.2706C29.721 78.4779 30.1312 78.788 30.4612 79.2012C30.783 79.6082 30.983 80.0838 31.0614 80.6282ZM30.0944 80.7674C30.0429 80.4092 29.9069 80.0998 29.6866 79.8391C29.4653 79.5711 29.1852 79.3775 28.8463 79.2581C28.5064 79.1315 28.143 79.0961 27.7562 79.1518C27.3623 79.2085 27.0272 79.3444 26.7511 79.5596C26.4668 79.7687 26.2563 80.0329 26.1195 80.3524C25.9745 80.6657 25.9277 81.0014 25.9793 81.3596C26.0319 81.7249 26.1724 82.041 26.4009 82.3079C26.6212 82.5686 26.8977 82.7628 27.2305 82.8904C27.5561 83.019 27.9158 83.055 28.3098 82.9983C28.6966 82.9426 29.0352 82.8061 29.3256 82.5889C29.6161 82.3716 29.8302 82.1068 29.968 81.7945C30.1048 81.4751 30.147 81.1327 30.0944 80.7674Z" fill="#f1faf8"/>
<path d="M32.8596 73.3499C32.8428 73.762 32.7621 74.1426 32.6176 74.4916C32.4733 74.8334 32.2803 75.1261 32.0387 75.3698C31.8045 75.6065 31.5329 75.7838 31.224 75.9016L30.8285 74.9404C31.1074 74.8503 31.3465 74.6681 31.546 74.3937C31.753 74.1124 31.8653 73.7549 31.883 73.321C31.8965 72.9884 31.8436 72.6857 31.7243 72.4129C31.6126 72.1331 31.4334 71.9085 31.1868 71.7392C30.9474 71.5701 30.6506 71.4784 30.2963 71.4639L28.9839 71.4106L29.1866 71.2341C29.5761 71.4528 29.8679 71.758 30.062 72.1497C30.2564 72.5342 30.3443 72.9543 30.3258 73.4098C30.3034 73.9593 30.1569 74.4459 29.8862 74.8694C29.6082 75.2927 29.2437 75.6183 28.7927 75.8462C28.3344 76.0738 27.8341 76.1766 27.2917 76.1546C26.7422 76.1322 26.2519 75.9891 25.8208 75.7254C25.3897 75.4616 25.0563 75.1112 24.8206 74.6743C24.5779 74.2299 24.4678 73.7329 24.4901 73.1834C24.5087 72.7278 24.6303 72.32 24.8549 71.9597C25.0727 71.592 25.3669 71.3033 25.7375 71.0939L26.0025 71.2568L24.701 71.2038L24.7411 70.2168L30.3377 70.4444C30.8439 70.465 31.291 70.6027 31.6789 70.8575C32.0669 71.1122 32.3643 71.4575 32.5711 71.8932C32.7855 72.322 32.8816 72.8076 32.8596 73.3499ZM29.3532 73.2834C29.3673 72.9363 29.2932 72.6218 29.1308 72.34C28.9687 72.0509 28.7464 71.8174 28.464 71.6393C28.1743 71.4609 27.8487 71.3644 27.4871 71.3497C27.1328 71.3353 26.8041 71.4052 26.5008 71.5595C26.1976 71.7137 25.9535 71.9283 25.7685 72.2033C25.5838 72.471 25.4844 72.7784 25.4703 73.1255C25.4558 73.4798 25.5295 73.8051 25.6913 74.1014C25.8531 74.3976 26.0788 74.635 26.3685 74.8133C26.6513 74.9842 26.9734 75.0769 27.335 75.0916C27.6965 75.1063 28.0287 75.0402 28.3317 74.8932C28.6277 74.7386 28.8682 74.5239 29.0532 74.2489C29.2385 73.9667 29.3385 73.6449 29.3532 73.2834Z" fill="#f1faf8"/>
<path d="M31.2604 66.9725C31.1812 67.3478 31.0437 67.6664 30.8479 67.9283C30.6465 68.1817 30.4083 68.3644 30.1332 68.4764C29.851 68.587 29.5506 68.6087 29.232 68.5415C28.9275 68.4772 28.6683 68.356 28.4545 68.1777C28.235 67.9909 28.0694 67.7415 27.9578 67.4295C27.8476 67.1104 27.8019 66.731 27.8207 66.2912L27.9184 64.093L28.7468 64.2678L28.6644 66.2362C28.6504 66.6178 28.7105 66.9116 28.8446 67.1174C28.9802 67.3161 29.1719 67.4416 29.4197 67.4939C29.6534 67.5432 29.8675 67.4922 30.0621 67.3409C30.2582 67.1826 30.3862 66.9619 30.4459 66.6786C30.5221 66.3175 30.5135 65.9902 30.4201 65.6969C30.3211 65.3949 30.1562 65.142 29.9256 64.938C29.6965 64.727 29.4226 64.5878 29.104 64.5206L27.6489 64.2136C27.3373 64.1479 27.0613 64.2117 26.8208 64.405C26.5747 64.5898 26.4121 64.8698 26.3329 65.2451C26.2642 65.5708 26.2879 65.8791 26.4041 66.1698C26.5147 66.452 26.6953 66.6824 26.9461 66.8611L26.3185 67.6273C26.0789 67.4658 25.8811 67.2465 25.7251 66.9696C25.5619 66.6911 25.453 66.3833 25.3984 66.0464C25.3437 65.7094 25.3523 65.371 25.424 65.0311C25.5166 64.5921 25.683 64.2241 25.9231 63.9272C26.1562 63.6288 26.4409 63.4189 26.7771 63.2975C27.1078 63.1676 27.4678 63.1437 27.8572 63.2258L31.7446 64.046L31.5407 65.0125L30.4574 64.7839L30.5592 64.6168C30.7604 64.785 30.9243 64.9897 31.0509 65.2309C31.1775 65.4721 31.2613 65.7412 31.3021 66.0383C31.343 66.3354 31.3291 66.6468 31.2604 66.9725Z" fill="#f1faf8"/>
<path d="M34.1837 57.6045C34.0171 57.9499 33.8075 58.2265 33.5548 58.434C33.2987 58.6319 33.0237 58.7524 32.7298 58.7955C32.4293 58.8354 32.1324 58.7846 31.8391 58.6432C31.5588 58.5081 31.3361 58.3284 31.1711 58.1042C31.0026 57.8703 30.9015 57.5886 30.8676 57.2589C30.8369 56.9228 30.8832 56.5434 31.0066 56.1208L31.6268 54.0097L32.3894 54.3774L31.8389 56.2691C31.7342 56.6363 31.7223 56.9359 31.8033 57.1678C31.8875 57.3931 32.0436 57.5608 32.2718 57.6708C32.4869 57.7745 32.707 57.7762 32.9321 57.6759C33.1604 57.569 33.3374 57.3852 33.4631 57.1245C33.6234 56.792 33.6932 56.4722 33.6726 56.165C33.6487 55.8482 33.5491 55.5631 33.3739 55.31C33.2018 55.0503 32.9691 54.8497 32.6758 54.7083L31.3362 54.0624C31.0494 53.9241 30.7661 53.9201 30.4864 54.0504C30.2033 54.171 29.9785 54.404 29.8119 54.7495C29.6673 55.0494 29.6167 55.3543 29.66 55.6644C29.6999 55.9649 29.8203 56.2318 30.0211 56.4652L29.2286 57.0592C29.0345 56.8451 28.8948 56.585 28.8095 56.2787C28.7177 55.9693 28.6855 55.6445 28.713 55.3042C28.7404 54.964 28.8296 54.6374 28.9804 54.3245C29.1753 53.9204 29.4248 53.6028 29.729 53.3719C30.0266 53.1378 30.3532 53.002 30.7087 52.9645C31.0608 52.9174 31.4161 52.9802 31.7747 53.1531L35.3534 54.8785L34.9244 55.7683L33.927 55.2874L34.0658 55.1495C34.221 55.3609 34.3312 55.5988 34.3965 55.8633C34.4619 56.1278 34.4788 56.4091 34.4475 56.7073C34.4162 57.0056 34.3283 57.3046 34.1837 57.6045Z" fill="#f1faf8"/>
<path d="M36.2281 53.2405L31.4304 49.8915L31.9958 49.0815L32.9304 49.7339L32.7571 49.8115C32.5373 49.4816 32.4355 49.1281 32.4516 48.751C32.4659 48.3638 32.5973 47.9922 32.8459 47.6362C33.0861 47.292 33.3766 47.0403 33.7173 46.8809C34.0621 46.7157 34.4248 46.6512 34.8055 46.6874C35.1903 46.7177 35.5548 46.853 35.8989 47.0933L39.0054 49.2617L38.4214 50.0984L35.5819 48.1164C35.3149 47.93 35.0563 47.82 34.806 47.7866C34.5558 47.7531 34.3181 47.7902 34.093 47.8978C33.866 47.9953 33.6739 48.1568 33.5165 48.3823C33.3591 48.6078 33.2716 48.8468 33.2542 49.0994C33.2349 49.3419 33.2851 49.5799 33.4045 49.8133C33.5181 50.0426 33.7054 50.2484 33.9665 50.4306L36.8059 52.4127L36.2281 53.2405Z" fill="#f1faf8"/>
<path d="M42.0193 46.0591C41.6309 46.4486 41.1861 46.705 40.6848 46.8285C40.1886 46.9469 39.6871 46.9323 39.1802 46.7846C38.6734 46.6369 38.2176 46.3612 37.8128 45.9575C37.3978 45.5436 37.1182 45.086 36.9743 44.5847C36.8252 44.0783 36.8091 43.5769 36.9261 43.0803C37.0482 42.5787 37.3035 42.1331 37.6918 41.7437C38.0342 41.4004 38.4125 41.1696 38.8269 41.0513C39.2361 40.9279 39.6403 40.912 40.0396 41.0036L40.1014 41.2952L37.5341 38.735L38.2546 38.0125L44.0732 43.8149L43.3757 44.5144L42.4918 43.6329L42.7067 43.6633C42.8352 44.0776 42.8358 44.4972 42.7085 44.9221C42.5863 45.3419 42.3565 45.7209 42.0193 46.0591ZM41.3888 45.3078C41.6494 45.0464 41.8179 44.7494 41.8942 44.4167C41.9705 44.084 41.9572 43.7488 41.8544 43.4112C41.7516 43.0634 41.5618 42.7515 41.2851 42.4756C41.0032 42.1945 40.6908 42.0056 40.3478 41.9089C40.0048 41.8019 39.6671 41.787 39.3346 41.8642C39.0021 41.9414 38.7055 42.1107 38.4449 42.3721C38.1894 42.6283 38.0235 42.9279 37.9472 43.2708C37.8709 43.6035 37.8842 43.9387 37.987 44.2763C38.0847 44.6088 38.277 44.9181 38.564 45.2042C38.8407 45.4802 39.1506 45.6716 39.4936 45.7786C39.8314 45.8805 40.1666 45.8928 40.4991 45.8156C40.8316 45.7384 41.1282 45.5691 41.3888 45.3078Z" fill="#f1faf8"/>
<path d="M46.9832 41.683C46.6696 41.9039 46.352 42.0435 46.0302 42.1019C45.7102 42.1503 45.4113 42.1218 45.1336 42.0165C44.8516 41.9052 44.6169 41.7165 44.4294 41.4502C44.2502 41.1958 44.143 40.9305 44.1079 40.6543C44.0744 40.3681 44.1231 40.0727 44.2538 39.7682C44.3905 39.4595 44.6155 39.1506 44.9288 38.8414L46.4976 37.2984L46.9851 37.9907L45.584 39.3758C45.3138 39.6457 45.1577 39.9017 45.1158 40.1437C45.0797 40.3815 45.1346 40.604 45.2804 40.8111C45.4179 41.0063 45.6094 41.1148 45.8549 41.1367C46.1063 41.1543 46.3504 41.0798 46.5871 40.9131C46.8888 40.7006 47.1054 40.4552 47.2368 40.1767C47.37 39.8882 47.4216 39.5908 47.3916 39.2843C47.3676 38.9738 47.2619 38.6853 47.0744 38.4191L46.2181 37.2032C46.0347 36.9429 45.7892 36.8016 45.4814 36.7793C45.1754 36.747 44.8656 36.8413 44.552 37.0621C44.2799 37.2538 44.0873 37.4956 43.9743 37.7877C43.863 38.0696 43.8384 38.3613 43.9003 38.6629L42.9189 38.7965C42.8535 38.515 42.858 38.2198 42.9324 37.9107C43.0026 37.5957 43.1325 37.2962 43.322 37.0123C43.5115 36.7284 43.7482 36.4864 44.0322 36.2864C44.3991 36.028 44.7715 35.8719 45.1496 35.8181C45.5235 35.7583 45.8749 35.7985 46.2038 35.9387C46.5344 36.0688 46.8143 36.2965 47.0434 36.6219L49.3311 39.8702L48.5235 40.439L47.8859 39.5337L48.0743 39.4807C48.1071 39.7409 48.0876 40.0024 48.0161 40.2652C47.9445 40.5281 47.8225 40.7822 47.6501 41.0275C47.4777 41.2728 47.2554 41.4913 46.9832 41.683Z" fill="#f1faf8"/>
<path d="M53.9019 37.2729L50.9167 29.6171L51.8572 29.2503L53.9039 34.4992L53.4841 34.558L55.225 30.4771L56.4285 30.0078L55.1908 33.0187L58.6957 35.4037L57.5832 35.8375L54.3888 33.681L54.9635 33.4219L54.0224 35.6996L54.0577 34.8936L54.8424 36.9062L53.9019 37.2729Z" fill="#f1faf8"/>
<path d="M60.2007 34.9995L58.1599 27.0396L59.1378 26.7889L61.1786 34.7487L60.2007 34.9995Z" fill="#f1faf8"/>
<path d="M63.2471 34.2588L62.2422 28.4948L63.2367 28.3215L64.2416 34.0854L63.2471 34.2588ZM62.0819 27.5752L61.8582 26.2919L62.8527 26.1185L63.0764 27.4018L62.0819 27.5752Z" fill="#f1faf8"/>
<path d="M69.0681 33.6575C68.5044 33.6862 67.9953 33.578 67.5408 33.333C67.0863 33.088 66.7209 32.7406 66.4444 32.2909C66.1676 31.834 66.0145 31.3164 65.9851 30.7383C65.9553 30.1528 66.0517 29.6262 66.2743 29.1584C66.5041 28.6902 66.8256 28.3152 67.2388 28.0333C67.6589 27.7439 68.1363 27.5856 68.6711 27.5584C69.1048 27.5363 69.4919 27.5964 69.8324 27.7385C70.1798 27.873 70.476 28.0681 70.7208 28.3237C70.9726 28.5718 71.1685 28.8625 71.3086 29.196C71.4556 29.5218 71.5383 29.8654 71.5567 30.2268C71.5607 30.3063 71.5581 30.397 71.5488 30.4989C71.5463 30.5933 71.5401 30.6842 71.53 30.7716L66.7382 31.0152L66.6942 30.1479L70.9005 29.9341L70.4433 30.3486C70.4893 29.9695 70.4361 29.6352 70.2837 29.3459C70.1313 29.0566 69.917 28.832 69.6408 28.6721C69.3645 28.5122 69.0566 28.4409 68.7169 28.4582C68.3772 28.4755 68.0708 28.578 67.7978 28.7658C67.5247 28.9535 67.317 29.2141 67.1745 29.5474C67.0389 29.8731 66.9967 30.2557 67.048 30.6951C67.0408 31.123 67.125 31.4955 67.3005 31.8126C67.4829 32.1222 67.7268 32.3598 68.0323 32.5254C68.3447 32.6834 68.678 32.7535 69.0321 32.7355C69.4224 32.7156 69.7466 32.6086 70.0049 32.4143C70.2631 32.22 70.4682 31.9777 70.6201 31.6874L71.4877 32.0781C71.3857 32.3514 71.2175 32.6063 70.9831 32.8428C70.7557 33.0718 70.479 33.2597 70.1531 33.4067C69.8345 33.5533 69.4728 33.6369 69.0681 33.6575Z" fill="#f1faf8"/>
<path d="M72.9716 33.3942L73.6128 27.5785L74.5947 27.6868L74.4698 28.8197L74.3186 28.7048C74.5029 28.3538 74.7645 28.095 75.1032 27.9285C75.4498 27.7556 75.839 27.6929 76.2706 27.7405C76.6878 27.7865 77.0479 27.9209 77.351 28.1436C77.6612 28.3671 77.8917 28.6546 78.0422 29.0061C78.1999 29.3584 78.2558 29.7431 78.2098 30.1603L77.7946 33.9259L76.7804 33.8141L77.1599 30.3722C77.1956 30.0485 77.1682 29.7688 77.0777 29.5331C76.9871 29.2975 76.8407 29.1066 76.6384 28.9605C76.4441 28.808 76.2103 28.7167 75.9369 28.6866C75.6636 28.6565 75.4119 28.6942 75.1818 28.7999C74.9597 28.8992 74.7749 29.0572 74.6272 29.2739C74.4803 29.4834 74.3895 29.7464 74.3546 30.0629L73.9751 33.5048L72.9716 33.3942Z" fill="#f1faf8"/>
<path d="M84.6206 35.799C84.0678 35.604 83.6348 35.2978 83.3216 34.8804C83.0084 34.463 82.8484 33.9922 82.8414 33.4679L83.7289 33.3666C83.7704 33.7495 83.8939 34.0847 84.0995 34.3721C84.3051 34.6594 84.5751 34.8621 84.9095 34.98C85.2098 35.0859 85.4841 35.1021 85.7326 35.0286C85.9811 34.9551 86.1462 34.8023 86.2281 34.5703C86.2858 34.4065 86.2838 34.26 86.2219 34.1307C86.1693 33.9971 86.0878 33.8801 85.9774 33.7798C85.8694 33.6726 85.7656 33.5861 85.666 33.5203L84.9199 32.9924C84.4722 32.6734 84.1793 32.3398 84.0411 31.9918C83.9098 31.6463 83.9067 31.296 84.0319 30.9411C84.1474 30.6135 84.3292 30.3592 84.5773 30.1781C84.8345 29.9926 85.1306 29.8821 85.4653 29.8467C85.8069 29.8138 86.1586 29.861 86.5203 29.9886C87.0049 30.1595 87.3949 30.4352 87.6904 30.8157C87.9928 31.1986 88.1476 31.6407 88.1549 32.1421L87.2506 32.226C87.2288 31.896 87.124 31.6058 86.9361 31.3554C86.7505 31.0981 86.5042 30.9153 86.1971 30.807C85.9173 30.7083 85.6702 30.7017 85.4559 30.7873C85.244 30.866 85.1007 31.0111 85.0261 31.2227C84.9707 31.3797 84.9659 31.5238 85.0117 31.655C85.0599 31.7795 85.1324 31.8894 85.2292 31.985C85.3283 32.0737 85.4265 32.1543 85.5236 32.227L86.3306 32.8109C86.7353 33.0994 87.0124 33.4235 87.1618 33.7831C87.318 34.1452 87.3287 34.5173 87.1939 34.8995C87.0856 35.2066 86.9028 35.4529 86.6456 35.6384C86.3883 35.8239 86.0854 35.932 85.737 35.9625C85.3886 35.9931 85.0165 35.9386 84.6206 35.799Z" fill="#f1faf8"/>
<path d="M89.528 37.8235C89.1896 37.643 88.9218 37.4223 88.7247 37.1613C88.5374 36.8974 88.4282 36.6177 88.3971 36.3223C88.3694 36.0205 88.4322 35.7259 88.5855 35.4386C88.7319 35.164 88.9205 34.9488 89.1512 34.793C89.3917 34.6342 89.6774 34.5446 90.0081 34.5242C90.3453 34.5071 90.7224 34.5689 91.1396 34.7093L93.2238 35.4149L92.8254 36.162L90.9576 35.535C90.595 35.4154 90.2961 35.3913 90.0611 35.4628C89.8325 35.5377 89.6587 35.687 89.5395 35.9104C89.4271 36.1212 89.4164 36.341 89.5075 36.57C89.605 36.8025 89.7815 36.9868 90.0369 37.123C90.3625 37.2967 90.6792 37.3795 90.987 37.3714C91.3046 37.3603 91.5934 37.2724 91.8535 37.1077C92.12 36.9463 92.3299 36.722 92.4831 36.4347L93.1829 35.1225C93.3328 34.8415 93.3483 34.5586 93.2295 34.2738C93.1206 33.9861 92.8969 33.752 92.5584 33.5715C92.2647 33.4148 91.962 33.3518 91.6504 33.3825C91.3486 33.4101 91.077 33.5195 90.8357 33.7107L90.2744 32.8946C90.4962 32.7095 90.7618 32.5805 91.0713 32.5077C91.3842 32.4285 91.71 32.4096 92.0489 32.4508C92.3877 32.4921 92.7104 32.5945 93.0169 32.758C93.4128 32.9691 93.7199 33.2313 93.9383 33.5446C94.1601 33.8516 94.2825 34.1834 94.3055 34.5401C94.3383 34.8939 94.261 35.2463 94.0737 35.5975L92.2041 39.1031L91.3325 38.6382L91.8535 37.6613L91.9857 37.8056C91.7682 37.952 91.526 38.0525 91.259 38.107C90.9921 38.1615 90.7103 38.167 90.4136 38.1236C90.1169 38.0802 89.8217 37.9801 89.528 37.8235Z" fill="#f1faf8"/>
<path d="M92.8424 42.2675C92.7391 42.1881 92.6424 42.1002 92.5523 42.0037C92.4622 41.9072 92.3866 41.8035 92.3256 41.6929L92.8742 40.9781C92.9285 41.0381 92.9972 41.1091 93.0802 41.191C93.1646 41.2832 93.2527 41.3645 93.3446 41.435C93.6144 41.6421 93.8644 41.7382 94.0947 41.7234C94.3264 41.7188 94.6155 41.6214 94.9621 41.4313L95.7902 40.9585L95.2377 41.6428L97.0839 35.1369L97.9537 35.8044L96.4547 40.9485L96.1964 40.7503L100.769 37.9657L101.656 38.6464L95.5785 42.2328C95.2914 42.4047 94.9933 42.5317 94.6841 42.6136C94.3762 42.7057 94.0669 42.7284 93.7562 42.6815C93.4455 42.6346 93.1409 42.4966 92.8424 42.2675Z" fill="#f1faf8"/>
<path d="M100.205 45.4856C99.9422 45.2066 99.7589 44.912 99.6553 44.6018C99.562 44.2919 99.5478 43.992 99.6126 43.7021C99.6826 43.4072 99.8361 43.1481 100.073 42.9246C100.299 42.7111 100.547 42.5674 100.815 42.4933C101.094 42.4196 101.393 42.4258 101.713 42.5119C102.038 42.6033 102.376 42.7822 102.726 43.0484L104.477 44.3821L103.861 44.963L102.29 43.7728C101.985 43.5437 101.709 43.4256 101.464 43.4184C101.223 43.4165 101.011 43.5024 100.827 43.6762C100.653 43.8401 100.573 44.045 100.586 44.2912C100.604 44.5425 100.713 44.7735 100.911 44.9841C101.164 45.2526 101.438 45.4321 101.732 45.5227C102.037 45.6135 102.339 45.6223 102.638 45.5492C102.942 45.4813 103.212 45.3356 103.449 45.1122L104.531 44.0918C104.763 43.8734 104.868 43.6102 104.846 43.3025C104.835 42.995 104.697 42.7017 104.434 42.4227C104.206 42.1805 103.939 42.0242 103.634 41.9538C103.339 41.8838 103.047 41.9008 102.757 42.005L102.485 41.0525C102.755 40.9477 103.047 40.9103 103.364 40.94C103.686 40.9648 104.001 41.0508 104.309 41.198C104.617 41.3453 104.89 41.5452 105.128 41.798C105.436 42.1244 105.643 42.4709 105.75 42.8375C105.863 43.1991 105.873 43.5527 105.781 43.8981C105.699 44.2438 105.513 44.5532 105.224 44.8263L102.333 47.5522L101.656 46.8335L102.461 46.0738L102.54 46.2528C102.287 46.3222 102.026 46.3401 101.756 46.3066C101.485 46.2731 101.216 46.1884 100.949 46.0526C100.682 45.9168 100.434 45.7278 100.205 45.4856Z" fill="#f1faf8"/>
<path d="M107.051 54.5811C106.825 54.1687 106.71 53.7407 106.706 53.2972C106.705 52.86 106.823 52.4571 107.058 52.0886L107.278 52.1288L106.184 52.7293L105.708 51.8633L112.913 47.9106L113.398 48.7956L110.22 50.5396L110.365 50.2863C110.774 50.3095 111.158 50.4374 111.517 50.6698C111.882 50.8988 112.181 51.2258 112.414 51.6509C112.679 52.1331 112.798 52.6289 112.772 53.1384C112.75 53.6542 112.596 54.1345 112.312 54.5794C112.034 55.0207 111.639 55.3824 111.125 55.6644C110.623 55.9394 110.109 56.0772 109.581 56.0779C109.053 56.0787 108.566 55.9499 108.118 55.6917C107.675 55.4398 107.319 55.0696 107.051 54.5811ZM107.871 54.0445C108.049 54.3681 108.286 54.6133 108.584 54.78C108.882 54.9468 109.206 55.0251 109.555 55.015C109.914 55.0078 110.265 54.9102 110.608 54.7222C110.963 54.5273 111.234 54.2837 111.42 53.9916C111.616 53.7023 111.724 53.3873 111.744 53.0465C111.769 52.7022 111.693 52.3683 111.516 52.0447C111.338 51.7211 111.099 51.4728 110.798 51.2997C110.5 51.133 110.17 51.05 109.807 51.0509C109.454 51.0547 109.103 51.1523 108.754 51.3437C108.411 51.5317 108.141 51.7752 107.942 52.0743C107.752 52.3763 107.648 52.6977 107.629 53.0385C107.613 53.3856 107.693 53.721 107.871 54.0445Z" fill="#f1faf8"/>
<path d="M109.945 61.0421C109.762 60.5081 109.726 59.9889 109.836 59.4845C109.946 58.9801 110.18 58.5331 110.536 58.1434C110.898 57.7513 111.354 57.4614 111.901 57.2738C112.456 57.0838 112.989 57.0313 113.5 57.1163C114.013 57.2081 114.462 57.4138 114.847 57.7333C115.241 58.0573 115.525 58.4726 115.699 58.9792C115.839 59.3899 115.888 59.7786 115.846 60.1451C115.812 60.5161 115.706 60.8546 115.528 61.1604C115.359 61.4708 115.133 61.7393 114.852 61.9659C114.579 62.197 114.271 62.3712 113.929 62.4885C113.854 62.5143 113.766 62.5368 113.665 62.5559C113.574 62.5796 113.485 62.5986 113.398 62.6131L111.843 58.0741L112.664 57.7927L114.03 61.7771L113.505 61.4519C113.882 61.3915 114.189 61.2482 114.425 61.022C114.661 60.7957 114.818 60.5278 114.895 60.2182C114.973 59.9086 114.957 59.593 114.846 59.2712C114.736 58.9494 114.553 58.6832 114.297 58.4725C114.041 58.2618 113.734 58.1339 113.374 58.0888C113.024 58.0483 112.644 58.1132 112.236 58.2837C111.823 58.3947 111.488 58.5783 111.231 58.8344C110.984 59.0951 110.823 59.3951 110.748 59.7344C110.682 60.0782 110.707 60.4179 110.822 60.7533C110.948 61.123 111.141 61.4052 111.399 61.5999C111.656 61.7945 111.946 61.9249 112.267 61.9908L112.131 62.9326C111.84 62.9098 111.548 62.8184 111.256 62.6584C110.974 62.5028 110.717 62.2887 110.485 62.016C110.257 61.7501 110.077 61.4255 109.945 61.0421Z" fill="#f1faf8"/>
<path d="M111.215 64.825L116.951 63.6704L117.146 64.6387L116.093 64.8508L116.22 64.7144C116.574 64.7835 116.856 64.9407 117.068 65.186C117.287 65.4298 117.436 65.7504 117.516 66.1476L117.587 66.4988L116.651 66.6873L116.55 66.1872C116.469 65.7828 116.275 65.4822 115.97 65.2853C115.671 65.0869 115.292 65.0342 114.831 65.127L111.415 65.8147L111.215 64.825Z" fill="#f1faf8"/>
<path d="M111.945 68.7663L117.761 68.1259L117.871 69.1294L112.056 69.7697L111.945 68.7663ZM118.689 68.0238L119.984 67.8812L120.094 68.8847L118.799 69.0272L118.689 68.0238Z" fill="#f1faf8"/>
<path d="M112.343 71.9296L120.56 72.0237L120.548 73.0331L114.915 72.9686L115.017 72.5573L118.151 75.6979L118.136 76.9896L115.806 74.7158L112.284 77.0746L112.298 75.8806L115.492 73.7243L115.518 74.3542L113.757 72.6297L114.491 72.9638L112.331 72.9391L112.343 71.9296Z" fill="#f1faf8"/>
<path d="M111.717 80.5611C111.789 80.1475 111.95 79.7898 112.201 79.488C112.45 79.1934 112.762 78.983 113.136 78.857C113.516 78.7393 113.931 78.7193 114.38 78.7972L117.985 79.4218L117.813 80.4165L114.315 79.8104C114.03 79.761 113.77 79.7748 113.537 79.8518C113.302 79.9359 113.106 80.0709 112.949 80.2567C112.79 80.4496 112.688 80.6815 112.641 80.9525C112.594 81.2234 112.613 81.4728 112.699 81.7006C112.783 81.9355 112.929 82.1298 113.137 82.2834C113.345 82.4442 113.605 82.5517 113.919 82.6061L117.331 83.1974L117.156 84.2028L111.391 83.2037L111.56 82.2304L112.683 82.425L112.559 82.5688C112.219 82.3703 111.974 82.0891 111.824 81.7253C111.68 81.3698 111.644 80.9817 111.717 80.5611Z" fill="#f1faf8"/>
<path d="M110.18 87.2268C110.354 86.6823 110.644 86.3115 111.049 86.1145C111.452 85.9243 111.936 85.9197 112.501 86.1006L115.437 87.0407L115.761 86.0275L116.681 86.3221L116.615 86.5289C116.536 86.777 116.549 86.9977 116.654 87.191C116.759 87.3842 116.936 87.5206 117.184 87.6L117.639 87.7457L117.331 88.7071L116.049 88.2967L115.649 89.5476L114.728 89.253L115.129 88.0021L112.224 87.072C112.038 87.0124 111.867 86.9881 111.712 86.9992C111.554 87.017 111.412 87.0817 111.285 87.193C111.165 87.3066 111.068 87.4771 110.996 87.7046C110.98 87.7528 110.965 87.8125 110.95 87.8836C110.932 87.9616 110.917 88.0328 110.904 88.097L110.056 87.8256C110.064 87.7294 110.083 87.625 110.111 87.5125C110.133 87.3978 110.155 87.3026 110.18 87.2268Z" fill="#f1faf8"/>
<path d="M109.419 89.7765L114.68 92.3369L114.248 93.2251L113.223 92.7263L113.382 92.6227C113.651 92.9143 113.806 93.2477 113.849 93.6226C113.895 94.0073 113.824 94.3948 113.633 94.7852C113.45 95.1627 113.202 95.4566 112.89 95.6671C112.576 95.884 112.227 96.0043 111.846 96.0278C111.461 96.0578 111.08 95.981 110.702 95.7973L107.296 94.1394L107.742 93.2219L110.856 94.7373C111.149 94.8798 111.421 94.9481 111.674 94.9422C111.926 94.9362 112.155 94.8626 112.361 94.7212C112.57 94.5895 112.734 94.4 112.855 94.1527C112.975 93.9055 113.024 93.6557 113.002 93.4035C112.983 93.161 112.897 92.9337 112.742 92.7218C112.595 92.513 112.377 92.3389 112.091 92.1996L108.978 90.6842L109.419 89.7765Z" fill="#f1faf8"/>
<path d="M104.38 94.4852C104.455 94.3787 104.539 94.2784 104.631 94.1844C104.724 94.0903 104.824 94.0105 104.932 93.945L105.669 94.4635C105.612 94.5202 105.544 94.5918 105.465 94.6782C105.377 94.7663 105.299 94.8577 105.232 94.9524C105.037 95.2306 104.951 95.4844 104.975 95.7139C104.99 95.9451 105.099 96.23 105.303 96.5684L105.81 97.3762L105.103 96.8525L111.68 98.4275L111.049 99.3241L105.847 98.0397L106.035 97.7734L109.007 102.227L108.363 103.141L104.528 97.2175C104.344 96.9378 104.205 96.6452 104.11 96.3396C104.005 96.0358 103.97 95.7277 104.004 95.4154C104.038 95.103 104.163 94.793 104.38 94.4852Z" fill="#f1faf8"/>
<path d="M101.323 102.136C101.592 101.863 101.879 101.668 102.185 101.553C102.491 101.448 102.791 101.422 103.083 101.475C103.38 101.534 103.645 101.678 103.877 101.906C104.099 102.124 104.252 102.366 104.337 102.631C104.421 102.906 104.426 103.206 104.352 103.529C104.274 103.857 104.108 104.201 103.855 104.562L102.59 106.362L101.985 105.769L103.115 104.154C103.332 103.84 103.439 103.56 103.437 103.314C103.43 103.074 103.336 102.865 103.155 102.688C102.985 102.52 102.777 102.448 102.531 102.471C102.281 102.498 102.054 102.616 101.851 102.822C101.593 103.086 101.424 103.366 101.345 103.663C101.266 103.971 101.268 104.273 101.353 104.569C101.432 104.87 101.588 105.135 101.821 105.363L102.882 106.405C103.109 106.628 103.376 106.723 103.683 106.69C103.989 106.666 104.277 106.518 104.546 106.244C104.779 106.007 104.925 105.734 104.984 105.427C105.042 105.129 105.014 104.838 104.899 104.552L105.84 104.245C105.955 104.51 106.004 104.801 105.986 105.118C105.974 105.441 105.9 105.759 105.765 106.072C105.63 106.386 105.44 106.666 105.197 106.914C104.882 107.234 104.544 107.455 104.182 107.576C103.825 107.702 103.472 107.725 103.123 107.647C102.775 107.578 102.458 107.404 102.174 107.126L99.3397 104.342L100.032 103.637L100.822 104.413L100.646 104.499C100.567 104.249 100.539 103.988 100.562 103.717C100.585 103.445 100.66 103.173 100.785 102.901C100.911 102.629 101.09 102.374 101.323 102.136Z" fill="#f1faf8"/>
<path d="M44.3693 109.287C46.15 110.958 48.1769 112.483 50.4415 113.824C65.2832 122.613 85.1767 120.416 96.9912 109.287H95.021C83.5909 119.246 65.1249 121.028 51.2554 112.815C49.4612 111.753 47.8224 110.57 46.3437 109.287H44.3693Z" fill="#f1faf8"/>
<path d="M49.6923 16.7364C54.627 18.8828 60.3902 17.3386 63.5906 13.0124C67.81 7.30876 76.3423 7.30876 80.5617 13.0124C83.7621 17.3386 89.5253 18.8828 94.46 16.7364C100.966 13.9066 108.355 18.1728 109.157 25.222C109.766 30.5688 113.985 34.7877 119.332 35.3963C126.381 36.1985 130.647 43.5877 127.817 50.0936C125.671 55.0284 127.215 60.7916 131.541 63.992C137.245 68.2113 137.245 76.7437 131.541 80.963C127.215 84.1635 125.671 89.9266 127.817 94.8614C130.647 101.367 126.381 108.756 119.332 109.559C113.985 110.167 109.766 114.386 109.157 119.733C108.355 126.782 100.966 131.048 94.46 128.219C89.5253 126.072 83.7621 127.616 80.5617 131.943C76.3423 137.646 67.81 137.646 63.5906 131.943C60.3902 127.616 54.627 126.072 49.6923 128.219C43.1864 131.048 35.7972 126.782 34.9949 119.733C34.3864 114.386 30.1674 110.167 24.8206 109.559C17.7714 108.756 13.5053 101.367 16.3351 94.8614C18.4815 89.9266 16.9372 84.1635 12.611 80.963C6.9074 76.7437 6.9074 68.2113 12.611 63.992C16.9372 60.7916 18.4815 55.0284 16.3351 50.0936C13.5053 43.5877 17.7714 36.1985 24.8206 35.3963C30.1674 34.7877 34.3864 30.5688 34.9949 25.222C35.7972 18.1728 43.1864 13.9066 49.6923 16.7364Z" stroke="#f1faf8"/>
<path d="M104.158 72.4774C104.158 90.1953 89.7944 104.558 72.0765 104.558C54.3587 104.558 39.9955 90.1953 39.9955 72.4774C39.9955 54.7595 54.3587 40.3964 72.0765 40.3964C89.7944 40.3964 104.158 54.7595 104.158 72.4774Z" stroke="#f1faf8" stroke-width="0.765415"/>
<path d="M126.071 72.4775C126.071 102.298 101.897 126.473 72.0761 126.473C42.2554 126.473 18.0809 102.298 18.0809 72.4775C18.0809 42.6568 42.2554 18.4823 72.0761 18.4823C101.897 18.4823 126.071 42.6568 126.071 72.4775Z" stroke="#f1faf8" stroke-width="0.765415"/>
</svg>
