<svg width="144" height="144" viewBox="0 0 144 144" fill="none" xmlns="http://www.w3.org/2000/svg">
<path d="M49.3856 16.0353C54.3204 18.1817 60.0835 16.6374 63.284 12.3112C67.5033 6.60759 76.0357 6.60759 80.255 12.3112C83.4555 16.6374 89.2186 18.1817 94.1534 16.0353C100.659 13.2055 108.048 17.4716 108.851 24.5208C109.459 29.8676 113.678 34.0866 119.025 34.6951C126.074 35.4974 130.34 42.8866 127.511 49.3925C125.364 54.3272 126.908 60.0904 131.235 63.2908C136.938 67.5102 136.938 76.0425 131.235 80.2619C126.908 83.4623 125.364 89.2255 127.511 94.1602C130.34 100.666 126.074 108.055 119.025 108.858C113.678 109.466 109.459 113.685 108.851 119.032C108.048 126.081 100.659 130.347 94.1534 127.517C89.2186 125.371 83.4555 126.915 80.255 131.241C76.0357 136.945 67.5033 136.945 63.284 131.241C60.0835 126.915 54.3204 125.371 49.3856 127.517C42.8797 130.347 35.4905 126.081 34.6883 119.032C34.0797 113.685 29.8608 109.466 24.514 108.858C17.4648 108.055 13.1986 100.666 16.0284 94.1602C18.1748 89.2255 16.6306 83.4623 12.3044 80.2619C6.60076 76.0425 6.60075 67.5102 12.3044 63.2908C16.6306 60.0904 18.1748 54.3272 16.0284 49.3925C13.1986 42.8866 17.4648 35.4974 24.514 34.6951C29.8608 34.0866 34.0797 29.8676 34.6883 24.5208C35.4905 17.4716 42.8797 13.2055 49.3856 16.0353Z" stroke="#484040"/>
<path d="M58.118 105.17L55.1184 118.182L53.8981 117.505L56.683 105.911L56.9392 106.053L48.5048 114.514L47.2242 113.804L49.9489 102.177L50.2201 102.327L41.846 110.822L40.6257 110.145L50.0732 100.709L51.3538 101.42L48.6342 113.109L48.363 112.958L56.8375 104.46L58.118 105.17Z" fill="#484040"/>
<path d="M40.1284 88.7384C40.5411 89.4944 40.734 90.2788 40.7068 91.0918C40.6641 91.9002 40.4165 92.6569 39.9641 93.362C39.5116 94.067 38.8772 94.6424 38.0607 95.0882C37.2443 95.534 36.43 95.7562 35.618 95.7547C34.7959 95.7587 34.0437 95.5675 33.3617 95.181C32.6741 94.7845 32.1294 94.2183 31.7276 93.4825C31.4084 92.8979 31.2359 92.3182 31.2099 91.7436C31.1684 91.1643 31.2461 90.6116 31.4429 90.0855C31.6297 89.5648 31.9081 89.0922 32.2782 88.6677C32.6382 88.2486 33.0601 87.907 33.5439 87.6429C33.6447 87.5878 33.7634 87.5296 33.8999 87.4681C34.0264 87.4121 34.1606 87.3585 34.3027 87.3071L38.0424 94.1561L36.9841 94.734L33.5993 88.5351L34.3501 88.8317C33.7462 89.0437 33.2881 89.3789 32.9757 89.8373C32.6478 90.2911 32.4679 90.7884 32.4361 91.3292C32.3942 91.8755 32.5108 92.4006 32.786 92.9046C33.0612 93.4086 33.4481 93.8057 33.9469 94.096C34.4401 94.3763 34.9896 94.508 35.5954 94.4912C36.1912 94.48 36.7978 94.273 37.4154 93.8704C38.088 93.5686 38.5974 93.1596 38.9436 92.6434C39.2743 92.1226 39.4496 91.569 39.4695 90.9824C39.4839 90.3857 39.3507 89.8303 39.07 89.3163C38.7453 88.7216 38.3318 88.2997 37.8294 88.0506C37.327 87.8016 36.7954 87.6666 36.2344 87.6458L36.2201 86.3975C36.671 86.3606 37.1435 86.4232 37.6376 86.5852C38.1216 86.7527 38.586 87.016 39.0307 87.3751C39.4598 87.7296 39.8257 88.184 40.1284 88.7384Z" fill="#484040"/>
<path d="M35.6488 71.5718C35.6421 72.3642 35.458 73.0804 35.0966 73.7205C34.7238 74.349 34.203 74.8213 33.5342 75.1372L33.3465 74.9289L35.4136 74.9463L35.4027 76.2383L22.3628 76.1282L22.3737 74.8362L28.2477 74.8858L27.8842 75.0895C27.3016 74.717 26.8406 74.2251 26.5013 73.6135C26.162 72.9905 25.9957 72.2828 26.0024 71.4904C26.0098 70.6176 26.2287 69.8442 26.6594 69.1703C27.0786 68.4848 27.6516 67.9498 28.3784 67.5655C29.1053 67.1697 29.9338 66.9757 30.864 66.9835C31.7827 66.9913 32.6078 67.1992 33.3394 67.6074C34.0596 68.0039 34.6292 68.5485 35.0483 69.2411C35.456 69.9222 35.6561 70.6991 35.6488 71.5718ZM34.3563 71.6298C34.3615 71.0097 34.2111 70.4572 33.9051 69.9722C33.5992 69.4758 33.1833 69.0876 32.6574 68.8075C32.1201 68.5158 31.5184 68.3672 30.8523 68.3616C30.1748 68.3559 29.5707 68.4943 29.04 68.7769C28.5094 69.0481 28.087 69.4293 27.7728 69.9205C27.4587 70.4002 27.299 70.9501 27.2937 71.5702C27.2885 72.1903 27.4388 72.7543 27.7446 73.2622C28.0505 73.7587 28.472 74.1584 29.0092 74.4616C29.5351 74.7531 30.131 74.9017 30.7971 74.9073C31.4631 74.913 32.0672 74.7745 32.6094 74.492C33.1402 74.1979 33.5627 73.8052 33.8769 73.314C34.1912 72.8113 34.351 72.25 34.3563 71.6298Z" fill="#484040"/>
<path d="M39.7578 54.7604C39.3355 55.5374 38.7686 56.1115 38.057 56.4828C37.3454 56.8542 36.5803 56.9873 35.7616 56.8822L35.8258 55.6819C36.4464 55.7186 37.0154 55.6096 37.5329 55.3549C38.0558 55.0902 38.4544 54.7055 38.7286 54.201C38.9918 53.7167 39.0979 53.245 39.0468 52.7859C38.9856 52.3213 38.7633 51.9848 38.3799 51.7764C38.0974 51.6228 37.8315 51.5829 37.5823 51.6566C37.3231 51.7248 37.0904 51.8402 36.8845 52.0027C36.6785 52.1652 36.5114 52.3163 36.3833 52.4558L35.4169 53.4402C34.7992 54.0717 34.2081 54.4497 33.6437 54.5743C33.0793 54.6989 32.5449 54.6241 32.0404 54.3499C31.5661 54.0921 31.2182 53.7462 30.9967 53.3121C30.7752 52.878 30.681 52.402 30.7141 51.8841C30.7473 51.3662 30.9009 50.855 31.1751 50.3505C31.5481 49.6643 32.067 49.1425 32.7318 48.785C33.3921 48.4119 34.1032 48.282 34.865 48.3955L34.7925 49.6109C34.2288 49.5659 33.7166 49.6666 33.256 49.9129C32.7907 50.1437 32.4319 50.4911 32.1797 50.9552C31.9329 51.4093 31.8515 51.8356 31.9355 52.2342C32.0195 52.6328 32.2381 52.928 32.5912 53.12C32.8636 53.268 33.119 53.3153 33.3572 53.2618C33.5954 53.2083 33.8042 53.1127 33.9837 52.9749C34.1686 52.8271 34.3196 52.6935 34.4368 52.5742L35.5624 51.441C36.1106 50.8894 36.6852 50.5416 37.2863 50.3977C37.8928 50.2437 38.4685 50.3148 39.0133 50.611C39.4573 50.8523 39.7873 51.195 40.0034 51.6392C40.2249 52.0733 40.3187 52.5622 40.2846 53.1057C40.2405 53.6438 40.0649 54.1954 39.7578 54.7604Z" fill="#484040"/>
<path d="M47.7079 44.3403L41.7846 37.2573L42.7757 36.4285L48.699 43.5114L47.7079 44.3403ZM40.6906 35.949L39.475 34.4954L40.4661 33.6666L41.6817 35.1202L40.6906 35.949Z" fill="#484040"/>
<path d="M60.0525 37.36C59.2779 37.6495 58.5965 37.6467 58.0081 37.3516C57.4197 37.0566 56.9687 36.4896 56.6551 35.6505L54.8158 30.7289L53.2183 31.3259L52.766 30.1157L53.1694 29.9649C53.5352 29.8282 53.7814 29.6014 53.9081 29.2843C54.0308 28.9565 54.0238 28.6097 53.8871 28.2439L53.6158 27.5178L54.826 27.0655L55.5738 29.0664L57.4778 28.3548L57.9301 29.565L56.026 30.2766L57.8653 35.1982C57.9739 35.4886 58.1134 35.7307 58.2839 35.9245C58.4503 36.1075 58.6599 36.2253 58.9125 36.278C59.1759 36.3267 59.4851 36.2847 59.8401 36.1521C59.9262 36.1199 60.0264 36.0763 60.1407 36.0213C60.255 35.9664 60.3532 35.9174 60.4352 35.8745L60.8392 36.9556C60.7222 37.0361 60.585 37.1119 60.4277 37.183C60.2744 37.2648 60.1493 37.3238 60.0525 37.36Z" fill="#484040"/>
<path d="M73.9015 35.7229C73.0427 35.6581 72.2795 35.3933 71.612 34.9283C70.9569 34.4528 70.4566 33.8334 70.1111 33.0703C69.7655 32.3071 69.6278 31.4618 69.6977 30.5342C69.7677 29.6066 70.0241 28.8025 70.4671 28.1219C70.9108 27.4298 71.4804 26.9027 72.1757 26.5405C72.8824 26.1792 73.6538 26.0301 74.4898 26.0932C75.154 26.1433 75.7342 26.3137 76.2305 26.6045C76.7392 26.8848 77.1607 27.2505 77.4952 27.7019C77.8306 28.1418 78.0757 28.6325 78.2307 29.174C78.3865 29.704 78.4436 30.2438 78.4022 30.7935C78.3935 30.908 78.3779 31.0393 78.3552 31.1873C78.3334 31.3238 78.3054 31.4657 78.2713 31.6128L70.4899 31.0258L70.5806 29.8234L77.6233 30.3547L76.9661 30.8234C77.1167 30.2013 77.0846 29.6345 76.8698 29.1231C76.6673 28.6011 76.3478 28.1797 75.9113 27.8588C75.4757 27.5265 74.9716 27.3388 74.3991 27.2956C73.8265 27.2524 73.2827 27.3611 72.7679 27.6217C72.2644 27.8832 71.855 28.2726 71.5395 28.7901C71.225 29.2962 71.0687 29.9178 71.0706 30.655C70.9581 31.3836 71.0242 32.0336 71.2691 32.6048C71.5262 33.1655 71.8955 33.6137 72.3769 33.9495C72.8698 34.2861 73.4082 34.4765 73.9922 34.5205C74.6679 34.5715 75.2468 34.4539 75.7291 34.1678C76.2114 33.8817 76.6138 33.509 76.9363 33.0496L77.9916 33.7166C77.7773 34.115 77.4678 34.4775 77.0631 34.804C76.6593 35.119 76.1858 35.3655 75.6426 35.5433C75.1117 35.7106 74.5314 35.7704 73.9015 35.7229Z" fill="#484040"/>
<path d="M96.2446 44.5954L106.473 36.8446L107.202 37.8057L104.54 45.8739L104.135 45.3385L112.612 44.9452L113.34 45.9063L103.111 53.6571L102.279 52.5587L111.025 45.9315L111.158 46.3925L102.856 46.7608L102.815 46.7059L105.425 38.8274L105.823 39.0666L97.0769 45.6938L96.2446 44.5954Z" fill="#484040"/>
<path d="M106.879 66.6556C106.801 66.0172 106.878 65.4177 107.11 64.8572C107.354 64.2953 107.725 63.8277 108.224 63.4546C108.735 63.0914 109.344 62.8667 110.05 62.7805L115.83 62.0755L115.986 63.358L110.361 64.0442C109.87 64.104 109.449 64.2538 109.097 64.4934C108.757 64.7431 108.506 65.0572 108.344 65.4356C108.183 65.8254 108.131 66.254 108.188 66.7214C108.245 67.1888 108.399 67.5924 108.648 67.9321C108.909 68.2705 109.246 68.5187 109.659 68.6766C110.083 68.8331 110.568 68.878 111.116 68.8112L116.57 68.1458L116.727 69.4283L107.562 70.5463L107.405 69.2639L109.183 69.0469L109.15 69.346C108.531 69.2017 108.019 68.8882 107.613 68.4056C107.207 67.9229 106.962 67.3396 106.879 66.6556Z" fill="#484040"/>
<path d="M106.522 79.6248L115.363 82.2893L114.99 83.5263L113.539 83.0889L113.803 82.9885C114.158 83.3234 114.393 83.7362 114.509 84.2269C114.622 84.7287 114.587 85.2819 114.405 85.8867L114.236 86.4475L112.999 86.0746L113.232 85.2994C113.424 84.6617 113.381 84.0907 113.101 83.5866C112.821 83.0824 112.318 82.721 111.592 82.5023L106.15 80.8619L106.522 79.6248Z" fill="#484040"/>
<path d="M99.2905 93.8584C99.6709 93.4131 100.093 93.0866 100.557 92.879C101.03 92.6788 101.501 92.6051 101.97 92.6579C102.438 92.7106 102.864 92.901 103.249 93.2292C103.615 93.5425 103.88 93.9045 104.043 94.3152C104.214 94.7335 104.263 95.198 104.189 95.7089C104.115 96.2197 103.902 96.77 103.549 97.3598L101.658 100.502L100.768 99.7415L102.497 96.8684C102.842 96.2873 102.994 95.7826 102.952 95.3542C102.902 94.9345 102.716 94.5867 102.393 94.3107C102.079 94.0422 101.708 93.937 101.281 93.995C100.846 94.0618 100.461 94.2917 100.125 94.6847C99.7151 95.165 99.4576 95.6699 99.3526 96.1995C99.2564 96.7365 99.2972 97.2547 99.475 97.7538C99.6527 98.253 99.9556 98.6853 100.383 99.0508L102.165 100.572C102.584 100.93 103.055 101.068 103.578 100.986C104.101 100.905 104.572 100.619 104.989 100.13C105.355 99.7022 105.566 99.2334 105.624 98.7239C105.69 98.2218 105.62 97.7467 105.414 97.2986L106.659 96.8218C106.844 97.2064 106.94 97.6428 106.946 98.1311C106.944 98.6281 106.857 99.1197 106.683 99.6058C106.518 100.099 106.268 100.543 105.932 100.936C105.492 101.451 105.004 101.819 104.468 102.041C103.924 102.271 103.379 102.342 102.835 102.255C102.292 102.183 101.789 101.95 101.326 101.555L96.5054 97.4377L97.3445 96.4553L98.7461 97.6524L98.4789 97.6734C98.3214 97.3274 98.2453 96.9302 98.2507 96.4817C98.2574 96.0495 98.3445 95.6028 98.5118 95.1416C98.6804 94.6966 98.94 94.2689 99.2905 93.8584Z" fill="#484040"/>
<path d="M89.2235 102.892L94.4475 114.84L93.2638 115.358L91.0209 110.228L91.3169 110.174C91.3456 110.813 91.1923 111.394 90.8568 111.917C90.5108 112.444 90.0221 112.846 89.3908 113.122C88.791 113.384 88.1945 113.482 87.6014 113.415C86.9978 113.353 86.4533 113.14 85.9681 112.776C85.477 112.427 85.1003 111.952 84.8381 111.352L82.4365 105.86L83.6203 105.342L85.8217 110.377C86.0471 110.893 86.3328 111.288 86.6786 111.563C87.0244 111.838 87.4071 111.996 87.8266 112.038C88.2402 112.096 88.6575 112.032 89.0784 111.848C89.4993 111.664 89.8344 111.399 90.0837 111.052C90.3376 110.715 90.484 110.319 90.5229 109.863C90.5559 109.423 90.4619 108.95 90.2411 108.445L88.0397 103.41L89.2235 102.892Z" fill="#484040"/>
<path d="M103.851 71.7762C103.851 89.4941 89.4877 103.857 71.7699 103.857C54.052 103.857 39.6889 89.4941 39.6889 71.7762C39.6889 54.0584 54.052 39.6952 71.7699 39.6952C89.4877 39.6952 103.851 54.0584 103.851 71.7762Z" stroke="#484040" stroke-width="0.765415"/>
<path d="M125.765 71.7763C125.765 101.597 101.59 125.771 71.7694 125.771C41.9488 125.771 17.7743 101.597 17.7743 71.7763C17.7743 41.9556 41.9488 17.7811 71.7694 17.7811C101.59 17.7811 125.765 41.9556 125.765 71.7763Z" stroke="#484040" stroke-width="0.765415"/>
<ellipse cx="73.4557" cy="113.48" rx="3.91125" ry="3.91125" fill="#973580"/>
</svg>
