<svg width="53" height="51" viewBox="0 0 53 51" fill="none" xmlns="http://www.w3.org/2000/svg">
<circle cx="26.6909" cy="25.6622" r="25" fill="#246153"/>
<circle cx="26.9938" cy="25.2719" r="23.0134" fill="#35977D"/>
<path fill-rule="evenodd" clip-rule="evenodd" d="M42.7777 21.607C41.2589 21.7779 39.9271 21.8274 38.7822 21.7555C39.5191 18.5966 39.7477 15.7735 39.468 13.2862C39.2699 11.5253 38.6957 10.1856 37.7454 9.26719C36.8171 8.34626 35.6486 7.96502 34.2399 8.12347C33.0953 8.2522 32.0831 8.66695 31.2035 9.36772C30.3458 10.066 29.71 11.0514 29.2958 12.3239C28.9013 13.572 28.8018 15.0654 28.9973 16.8043C29.1929 18.5432 29.7074 20.0457 30.5408 21.3116C31.3717 22.5556 32.5055 23.5202 33.9423 24.2057C33.1311 26.7042 32.1665 28.8299 31.0486 30.5828C29.9281 32.3137 28.8397 33.2386 27.7831 33.3574C26.8806 33.4589 26.1452 33.1627 25.5768 32.4688C25.0279 31.7504 24.5837 30.6747 24.2442 29.2417C23.9267 27.8063 23.6306 25.867 23.3558 23.4237C22.9522 19.8358 22.8569 16.2133 23.0696 12.5561C23.0914 12.3531 23.0825 12.0755 23.0428 11.7233C22.976 11.129 22.7614 10.7073 22.399 10.4583C22.0562 10.1848 21.5436 10.0864 20.8613 10.1632C20.0469 10.2548 19.4198 10.5259 18.9801 10.9766C18.56 11.4027 18.3188 12.132 18.2566 13.1643C18.0033 17.6508 17.5169 21.5505 16.7973 24.8635C16.0753 28.1544 15.2555 30.6762 14.3382 32.4289C13.4403 34.157 12.6062 35.0644 11.8358 35.1511C10.9774 35.2476 10.2047 34.5209 9.51766 32.971C8.83067 31.4212 7.98956 25.4393 7.98956 23.4237C7.98956 11.2222 8.7882 7.58085 7.68405 6.47604C6.5799 5.37123 6.00008 5.4303 5.33974 5.50457C4.45928 5.6036 4.20052 5.98877 3.83182 6.47604C3.48265 6.93882 2.93057 14.0411 2.90027 15.159C2.7637 19.0974 2.87737 22.6844 3.2413 25.9201C3.74139 30.3664 4.67926 33.8496 6.05491 36.3697C7.42808 38.8677 9.17121 39.9979 11.2843 39.7602C13.1553 39.5498 14.811 38.4163 16.2514 36.3596C17.7138 34.3005 18.89 31.2816 19.7799 27.3031C20.3007 30.7441 21.1617 33.4446 22.3629 35.4047C23.5616 37.3429 25.1295 38.203 27.0665 37.9852C29.1796 37.7475 31.1934 36.4288 33.1079 34.029C35.042 31.6048 36.5949 28.6662 37.7669 25.2132C39.0455 25.3305 40.4531 25.3066 41.9896 25.1415C41.6864 28.0973 41.5774 31.2938 41.6627 34.7312C41.6682 35.1764 41.6808 35.487 41.7006 35.6631C41.7699 36.2794 41.9528 36.7158 42.2491 36.9722C42.5454 37.2287 43.0457 37.3173 43.7501 37.238C44.5425 37.1489 45.1097 36.9402 45.4517 36.612C45.7938 36.2838 45.9472 35.765 45.912 35.0557C45.7511 31.8417 45.901 27.8238 46.3617 23.002C46.3711 22.6889 46.3696 22.4773 46.3572 22.3672C46.2706 21.5968 45.754 21.2649 44.8075 21.3713C44.1099 21.4498 43.4627 21.53 42.7777 21.607ZM34.9246 20.7517C33.4215 19.8731 32.5487 18.3553 32.3061 16.1982C32.1625 14.9215 32.2394 13.9209 32.5369 13.1965C32.8318 12.45 33.2765 12.0434 33.8708 11.9765C34.289 11.9295 34.6439 12.1125 34.9356 12.5255C35.2247 12.9165 35.4213 13.5742 35.5253 14.4987C35.706 16.1055 35.5058 18.1899 34.9246 20.7517Z" fill="#7ACEB4"/>
<path d="M44.9256 19.1513C45.4349 19.5176 46.1517 19.6487 47.0762 19.5447C48.0227 19.4382 48.7536 19.0997 49.269 18.5291C49.7819 17.9364 49.9888 17.1999 49.8898 16.3194C49.8081 15.593 49.4918 15.0602 48.941 14.721C48.3902 14.3817 47.7075 14.2579 46.8931 14.3495C45.9906 14.451 45.261 14.8005 44.7041 15.3981C44.1667 15.9712 43.9413 16.643 44.028 17.4134C44.1146 18.1838 44.4138 18.7631 44.9256 19.1513Z" fill="#B6439E"/>
<path d="M30.5804 8.58557L30.5804 8.58552L30.5721 8.59225C29.5367 9.43531 28.8059 10.5979 28.3449 12.0145L28.3449 12.0145L28.3424 12.0225C27.8939 13.4408 27.7974 15.0826 28.0036 16.9161C28.2141 18.7872 28.7731 20.445 29.7055 21.8615L29.7055 21.8615L29.7092 21.8671C30.4861 23.0302 31.4962 23.9712 32.7236 24.6908C31.9925 26.7809 31.1514 28.5613 30.2072 30.0423C29.1116 31.7341 28.2453 32.2991 27.6713 32.3637C27.1066 32.4272 26.7086 32.266 26.3609 31.8478C25.939 31.2892 25.541 30.375 25.219 29.0184C24.9131 27.6332 24.6221 25.7357 24.3495 23.3119C23.9532 19.7882 23.8588 16.2296 24.0667 12.6355C24.0961 12.3319 24.0781 11.9805 24.0366 11.6115C23.9508 10.8491 23.6531 10.1219 22.9944 9.65438C22.3569 9.16235 21.5389 9.08063 20.7495 9.16942C19.7766 9.27885 18.9099 9.61747 18.266 10.2765C17.5911 10.9626 17.3254 11.9919 17.2584 13.1042L17.2582 13.108C17.007 17.5572 16.5258 21.402 15.8204 24.6499C15.1061 27.9054 14.3094 30.3275 13.4522 31.9651L13.4508 31.9678C13.0219 32.7933 12.6362 33.3662 12.303 33.7288C11.9581 34.104 11.7633 34.1529 11.724 34.1573C11.652 34.1654 11.5232 34.1623 11.2975 33.95C11.0491 33.7164 10.7499 33.2833 10.4319 32.5658C10.3056 32.281 10.1416 31.706 9.96642 30.8972C9.79657 30.1129 9.63055 29.1782 9.48455 28.2212C9.18958 26.2878 8.98956 24.3513 8.98956 23.4237C8.98956 18.8925 9.09974 15.5591 9.18173 13.0784C9.20985 12.2274 9.23466 11.4768 9.25057 10.8125C9.28128 9.53039 9.28045 8.5245 9.19083 7.75819C9.10302 7.00751 8.91172 6.28982 8.39137 5.76915C7.77866 5.15607 7.22255 4.77427 6.64332 4.59354C6.0722 4.41534 5.58168 4.47083 5.25609 4.50766C5.24657 4.50874 5.2372 4.5098 5.22797 4.51084C4.64255 4.57668 4.17615 4.75108 3.78482 5.05159C3.46615 5.29629 3.23592 5.60372 3.08025 5.81158C3.06417 5.83306 3.04889 5.85347 3.03438 5.87264L3.03354 5.87374C2.8931 6.05989 2.82969 6.27203 2.80629 6.35031L2.80604 6.35112C2.77049 6.47006 2.73971 6.60373 2.71255 6.73833C2.6577 7.01007 2.60402 7.35437 2.55226 7.7366C2.44823 8.50492 2.34405 9.48667 2.25086 10.4783C2.06576 12.4476 1.91743 14.5273 1.90075 15.128C1.76301 19.104 1.87729 22.7397 2.24757 26.0319C2.75494 30.5429 3.71458 34.1695 5.17716 36.8488L5.17858 36.8514C5.91655 38.1939 6.79603 39.2478 7.84811 39.9299C8.91872 40.6241 10.1155 40.898 11.3961 40.754C13.6381 40.5018 15.5218 39.1434 17.0686 36.936C18.0746 35.5188 18.9337 33.7118 19.6587 31.5358C20.1459 33.2351 20.76 34.703 21.5102 35.9273L21.5124 35.9308C22.1782 37.0072 22.9855 37.8473 23.9569 38.3802C24.938 38.9184 26.0242 39.1087 27.1783 38.9789C29.6527 38.7006 31.8833 37.1675 33.8896 34.6527C35.7676 32.2988 37.287 29.4975 38.4582 26.2635C39.231 26.3006 40.0395 26.2922 40.8833 26.2395C40.6613 28.8995 40.5883 31.7367 40.6628 34.7499C40.6683 35.1905 40.681 35.5445 40.7069 35.7748C40.7887 36.5019 41.0239 37.2344 41.5947 37.7284C42.22 38.2695 43.087 38.3189 43.8619 38.2318C44.7373 38.1333 45.5677 37.8868 46.1442 37.3335C46.7813 36.722 46.953 35.859 46.9107 35.0061L46.9107 35.0057C46.7531 31.8577 46.899 27.8922 47.3572 23.0971L47.3603 23.0646L47.3613 23.0319C47.3704 22.7276 47.3725 22.4468 47.3509 22.2555C47.2836 21.6568 47.0212 21.0692 46.4454 20.6992C46.3703 20.6509 46.2931 20.6085 46.2144 20.5716C46.5305 20.5888 46.8567 20.5757 47.188 20.5384C48.3168 20.4115 49.2957 19.9915 50.0111 19.1993L50.0182 19.1915L50.0251 19.1835C50.7454 18.3512 51.0092 17.3255 50.8835 16.2077C50.7725 15.2208 50.3145 14.3924 49.4654 13.8695C48.6785 13.3849 47.7576 13.2459 46.7813 13.3557C45.6706 13.4807 44.7115 13.9239 43.9735 14.7152C43.2396 15.4986 42.9144 16.4596 43.0342 17.5251C43.1447 18.5069 43.5472 19.3608 44.3212 19.948L44.3314 19.9557L44.3417 19.9632C44.5722 20.1289 44.8208 20.257 45.0837 20.3523C44.953 20.3542 44.8231 20.3632 44.6957 20.3776C44.3438 20.4172 44.0049 20.4571 43.6707 20.4966L43.669 20.4968C43.3346 20.5363 43.0047 20.5752 42.6659 20.6133C41.693 20.7227 40.81 20.7797 40.0146 20.7867C40.5644 18.0163 40.7205 15.4757 40.4617 13.1745C40.2468 11.2641 39.6089 9.68013 38.4451 8.55268C37.2826 7.4021 35.8066 6.94095 34.1281 7.12973C32.8013 7.27896 31.6109 7.76463 30.5804 8.58557ZM34.5315 14.6105C34.6566 15.7225 34.5823 17.1367 34.283 18.8709C33.7708 18.1886 33.4338 17.2781 33.2998 16.0864C33.1643 14.8816 33.2568 14.0759 33.4619 13.5763L33.462 13.5763L33.4669 13.564C33.6796 13.0258 33.8812 12.9817 33.9826 12.9703C33.9885 12.9696 33.9929 12.9694 33.9959 12.9693C34.0082 12.977 34.0526 13.0087 34.1187 13.1023L34.125 13.1113L34.1316 13.1201C34.258 13.2911 34.4323 13.7277 34.5315 14.6105Z" stroke="white" stroke-width="2"/>
</svg>
