<svg width="187" height="186" viewBox="0 0 187 186" fill="none" xmlns="http://www.w3.org/2000/svg">
<path d="M101.044 98.9276C101.044 99.7045 100.414 100.334 99.6376 100.334C98.8607 100.334 98.2309 99.7045 98.2309 98.9276C98.2309 98.1508 98.8607 97.521 99.6376 97.521C100.414 97.521 101.044 98.1508 101.044 98.9276Z" fill="#4FB297"/>
<path d="M3.5188 98.9276C3.5188 99.7045 2.88903 100.334 2.11218 100.334C1.33533 100.334 0.705566 99.7045 0.705566 98.9276C0.705566 98.1508 1.33533 97.521 2.11218 97.521C2.88903 97.521 3.5188 98.1508 3.5188 98.9276Z" fill="#4FB297"/>
<path d="M149.807 98.9276C149.807 99.7045 149.177 100.334 148.4 100.334C147.623 100.334 146.994 99.7045 146.994 98.9276C146.994 98.1508 147.623 97.521 148.4 97.521C149.177 97.521 149.807 98.1508 149.807 98.9276Z" fill="#4FB297"/>
<path d="M52.2815 98.9276C52.2815 99.7045 51.6517 100.334 50.8749 100.334C50.098 100.334 49.4683 99.7045 49.4683 98.9276C49.4683 98.1508 50.098 97.521 50.8749 97.521C51.6517 97.521 52.2815 98.1508 52.2815 98.9276Z" fill="#4FB297"/>
<path d="M125.426 98.9276C125.426 99.7045 124.796 100.334 124.019 100.334C123.242 100.334 122.612 99.7045 122.612 98.9276C122.612 98.1508 123.242 97.521 124.019 97.521C124.796 97.521 125.426 98.1508 125.426 98.9276Z" fill="#4FB297"/>
<path d="M27.9001 98.9276C27.9001 99.7045 27.2704 100.334 26.4935 100.334C25.7167 100.334 25.0869 99.7045 25.0869 98.9276C25.0869 98.1508 25.7167 97.521 26.4935 97.521C27.2704 97.521 27.9001 98.1508 27.9001 98.9276Z" fill="#4FB297"/>
<path d="M174.188 98.9276C174.188 99.7045 173.558 100.334 172.782 100.334C172.005 100.334 171.375 99.7045 171.375 98.9276C171.375 98.1508 172.005 97.521 172.782 97.521C173.558 97.521 174.188 98.1508 174.188 98.9276Z" fill="#4FB297"/>
<path d="M76.6628 98.9276C76.6628 99.7045 76.0331 100.334 75.2562 100.334C74.4794 100.334 73.8496 99.7045 73.8496 98.9276C73.8496 98.1508 74.4794 97.521 75.2562 97.521C76.0331 97.521 76.6628 98.1508 76.6628 98.9276Z" fill="#4FB297"/>
<path d="M113.235 98.9276C113.235 99.7045 112.605 100.334 111.828 100.334C111.051 100.334 110.422 99.7045 110.422 98.9276C110.422 98.1508 111.051 97.521 111.828 97.521C112.605 97.521 113.235 98.1508 113.235 98.9276Z" fill="#4FB297"/>
<path d="M15.7095 98.9276C15.7095 99.7045 15.0797 100.334 14.3029 100.334C13.526 100.334 12.8962 99.7045 12.8962 98.9276C12.8962 98.1508 13.526 97.521 14.3029 97.521C15.0797 97.521 15.7095 98.1508 15.7095 98.9276Z" fill="#4FB297"/>
<path d="M161.998 98.9276C161.998 99.7045 161.368 100.334 160.591 100.334C159.814 100.334 159.184 99.7045 159.184 98.9276C159.184 98.1508 159.814 97.521 160.591 97.521C161.368 97.521 161.998 98.1508 161.998 98.9276Z" fill="#4FB297"/>
<path d="M64.4722 98.9276C64.4722 99.7045 63.8424 100.334 63.0655 100.334C62.2887 100.334 61.6589 99.7045 61.6589 98.9276C61.6589 98.1508 62.2887 97.521 63.0655 97.521C63.8424 97.521 64.4722 98.1508 64.4722 98.9276Z" fill="#4FB297"/>
<path d="M137.616 98.9276C137.616 99.7045 136.986 100.334 136.21 100.334C135.433 100.334 134.803 99.7045 134.803 98.9276C134.803 98.1508 135.433 97.521 136.21 97.521C136.986 97.521 137.616 98.1508 137.616 98.9276Z" fill="#4FB297"/>
<path d="M40.0908 98.9276C40.0908 99.7045 39.461 100.334 38.6842 100.334C37.9073 100.334 37.2776 99.7045 37.2776 98.9276C37.2776 98.1508 37.9073 97.521 38.6842 97.521C39.461 97.521 40.0908 98.1508 40.0908 98.9276Z" fill="#4FB297"/>
<path d="M186.379 98.9276C186.379 99.7045 185.749 100.334 184.972 100.334C184.195 100.334 183.566 99.7045 183.566 98.9276C183.566 98.1508 184.195 97.521 184.972 97.521C185.749 97.521 186.379 98.1508 186.379 98.9276Z" fill="#4FB297"/>
<path d="M88.8535 98.9276C88.8535 99.7045 88.2237 100.334 87.4469 100.334C86.67 100.334 86.0403 99.7045 86.0403 98.9276C86.0403 98.1508 86.67 97.521 87.4469 97.521C88.2237 97.521 88.8535 98.1508 88.8535 98.9276Z" fill="#4FB297"/>
<path d="M101.044 1.40222C101.044 2.17907 100.414 2.80884 99.6376 2.80884C98.8607 2.80884 98.2309 2.17907 98.2309 1.40222C98.2309 0.625369 98.8607 -0.00439453 99.6376 -0.00439453C100.414 -0.00439453 101.044 0.625369 101.044 1.40222Z" fill="#4FB297"/>
<path d="M3.5188 1.40222C3.5188 2.17907 2.88903 2.80884 2.11218 2.80884C1.33533 2.80884 0.705566 2.17907 0.705566 1.40222C0.705566 0.625369 1.33533 -0.00439453 2.11218 -0.00439453C2.88903 -0.00439453 3.5188 0.625369 3.5188 1.40222Z" fill="#4FB297"/>
<path d="M149.807 1.40222C149.807 2.17907 149.177 2.80884 148.4 2.80884C147.623 2.80884 146.994 2.17907 146.994 1.40222C146.994 0.625369 147.623 -0.00439453 148.4 -0.00439453C149.177 -0.00439453 149.807 0.625369 149.807 1.40222Z" fill="#4FB297"/>
<path d="M52.2815 1.40222C52.2815 2.17907 51.6517 2.80884 50.8749 2.80884C50.098 2.80884 49.4683 2.17907 49.4683 1.40222C49.4683 0.625369 50.098 -0.00439453 50.8749 -0.00439453C51.6517 -0.00439453 52.2815 0.625369 52.2815 1.40222Z" fill="#4FB297"/>
<path d="M125.426 1.40222C125.426 2.17907 124.796 2.80884 124.019 2.80884C123.242 2.80884 122.612 2.17907 122.612 1.40222C122.612 0.625369 123.242 -0.00439453 124.019 -0.00439453C124.796 -0.00439453 125.426 0.625369 125.426 1.40222Z" fill="#4FB297"/>
<path d="M27.9001 1.40222C27.9001 2.17907 27.2704 2.80884 26.4935 2.80884C25.7167 2.80884 25.0869 2.17907 25.0869 1.40222C25.0869 0.625369 25.7167 -0.00439453 26.4935 -0.00439453C27.2704 -0.00439453 27.9001 0.625369 27.9001 1.40222Z" fill="#4FB297"/>
<path d="M174.188 1.40222C174.188 2.17907 173.558 2.80884 172.782 2.80884C172.005 2.80884 171.375 2.17907 171.375 1.40222C171.375 0.625369 172.005 -0.00439453 172.782 -0.00439453C173.558 -0.00439453 174.188 0.625369 174.188 1.40222Z" fill="#4FB297"/>
<path d="M76.6628 1.40222C76.6628 2.17907 76.0331 2.80884 75.2562 2.80884C74.4794 2.80884 73.8496 2.17907 73.8496 1.40222C73.8496 0.625369 74.4794 -0.00439453 75.2562 -0.00439453C76.0331 -0.00439453 76.6628 0.625369 76.6628 1.40222Z" fill="#4FB297"/>
<path d="M113.235 1.40222C113.235 2.17907 112.605 2.80884 111.828 2.80884C111.051 2.80884 110.422 2.17907 110.422 1.40222C110.422 0.625369 111.051 -0.00439453 111.828 -0.00439453C112.605 -0.00439453 113.235 0.625369 113.235 1.40222Z" fill="#4FB297"/>
<path d="M15.7095 1.40222C15.7095 2.17907 15.0797 2.80884 14.3029 2.80884C13.526 2.80884 12.8962 2.17907 12.8962 1.40222C12.8962 0.625369 13.526 -0.00439453 14.3029 -0.00439453C15.0797 -0.00439453 15.7095 0.625369 15.7095 1.40222Z" fill="#4FB297"/>
<path d="M161.998 1.40222C161.998 2.17907 161.368 2.80884 160.591 2.80884C159.814 2.80884 159.184 2.17907 159.184 1.40222C159.184 0.625369 159.814 -0.00439453 160.591 -0.00439453C161.368 -0.00439453 161.998 0.625369 161.998 1.40222Z" fill="#4FB297"/>
<path d="M64.4722 1.40222C64.4722 2.17907 63.8424 2.80884 63.0655 2.80884C62.2887 2.80884 61.6589 2.17907 61.6589 1.40222C61.6589 0.625369 62.2887 -0.00439453 63.0655 -0.00439453C63.8424 -0.00439453 64.4722 0.625369 64.4722 1.40222Z" fill="#4FB297"/>
<path d="M137.616 1.40222C137.616 2.17907 136.986 2.80884 136.21 2.80884C135.433 2.80884 134.803 2.17907 134.803 1.40222C134.803 0.625369 135.433 -0.00439453 136.21 -0.00439453C136.986 -0.00439453 137.616 0.625369 137.616 1.40222Z" fill="#4FB297"/>
<path d="M40.0908 1.40222C40.0908 2.17907 39.461 2.80884 38.6842 2.80884C37.9073 2.80884 37.2776 2.17907 37.2776 1.40222C37.2776 0.625369 37.9073 -0.00439453 38.6842 -0.00439453C39.461 -0.00439453 40.0908 0.625369 40.0908 1.40222Z" fill="#4FB297"/>
<path d="M186.379 1.40222C186.379 2.17907 185.749 2.80884 184.972 2.80884C184.195 2.80884 183.566 2.17907 183.566 1.40222C183.566 0.625369 184.195 -0.00439453 184.972 -0.00439453C185.749 -0.00439453 186.379 0.625369 186.379 1.40222Z" fill="#4FB297"/>
<path d="M88.8535 1.40222C88.8535 2.17907 88.2237 2.80884 87.4469 2.80884C86.67 2.80884 86.0403 2.17907 86.0403 1.40222C86.0403 0.625369 86.67 -0.00439453 87.4469 -0.00439453C88.2237 -0.00439453 88.8535 0.625369 88.8535 1.40222Z" fill="#4FB297"/>
<path d="M101.044 147.69C101.044 148.467 100.414 149.097 99.6376 149.097C98.8607 149.097 98.2309 148.467 98.2309 147.69C98.2309 146.913 98.8607 146.284 99.6376 146.284C100.414 146.284 101.044 146.913 101.044 147.69Z" fill="#4FB297"/>
<path d="M3.5188 147.69C3.5188 148.467 2.88903 149.097 2.11218 149.097C1.33533 149.097 0.705566 148.467 0.705566 147.69C0.705566 146.913 1.33533 146.284 2.11218 146.284C2.88903 146.284 3.5188 146.913 3.5188 147.69Z" fill="#4FB297"/>
<path d="M149.807 147.69C149.807 148.467 149.177 149.097 148.4 149.097C147.623 149.097 146.994 148.467 146.994 147.69C146.994 146.913 147.623 146.284 148.4 146.284C149.177 146.284 149.807 146.913 149.807 147.69Z" fill="#4FB297"/>
<path d="M52.2815 147.69C52.2815 148.467 51.6517 149.097 50.8749 149.097C50.098 149.097 49.4683 148.467 49.4683 147.69C49.4683 146.913 50.098 146.284 50.8749 146.284C51.6517 146.284 52.2815 146.913 52.2815 147.69Z" fill="#4FB297"/>
<path d="M125.426 147.69C125.426 148.467 124.796 149.097 124.019 149.097C123.242 149.097 122.612 148.467 122.612 147.69C122.612 146.913 123.242 146.284 124.019 146.284C124.796 146.284 125.426 146.913 125.426 147.69Z" fill="#4FB297"/>
<path d="M27.9001 147.69C27.9001 148.467 27.2704 149.097 26.4935 149.097C25.7167 149.097 25.0869 148.467 25.0869 147.69C25.0869 146.913 25.7167 146.284 26.4935 146.284C27.2704 146.284 27.9001 146.913 27.9001 147.69Z" fill="#4FB297"/>
<path d="M174.188 147.69C174.188 148.467 173.558 149.097 172.782 149.097C172.005 149.097 171.375 148.467 171.375 147.69C171.375 146.913 172.005 146.284 172.782 146.284C173.558 146.284 174.188 146.913 174.188 147.69Z" fill="#4FB297"/>
<path d="M76.6628 147.69C76.6628 148.467 76.0331 149.097 75.2562 149.097C74.4794 149.097 73.8496 148.467 73.8496 147.69C73.8496 146.913 74.4794 146.284 75.2562 146.284C76.0331 146.284 76.6628 146.913 76.6628 147.69Z" fill="#4FB297"/>
<path d="M113.235 147.69C113.235 148.467 112.605 149.097 111.828 149.097C111.051 149.097 110.422 148.467 110.422 147.69C110.422 146.913 111.051 146.284 111.828 146.284C112.605 146.284 113.235 146.913 113.235 147.69Z" fill="#4FB297"/>
<path d="M15.7095 147.69C15.7095 148.467 15.0797 149.097 14.3029 149.097C13.526 149.097 12.8962 148.467 12.8962 147.69C12.8962 146.913 13.526 146.284 14.3029 146.284C15.0797 146.284 15.7095 146.913 15.7095 147.69Z" fill="#4FB297"/>
<path d="M161.998 147.69C161.998 148.467 161.368 149.097 160.591 149.097C159.814 149.097 159.184 148.467 159.184 147.69C159.184 146.913 159.814 146.284 160.591 146.284C161.368 146.284 161.998 146.913 161.998 147.69Z" fill="#4FB297"/>
<path d="M64.4722 147.69C64.4722 148.467 63.8424 149.097 63.0655 149.097C62.2887 149.097 61.6589 148.467 61.6589 147.69C61.6589 146.913 62.2887 146.284 63.0655 146.284C63.8424 146.284 64.4722 146.913 64.4722 147.69Z" fill="#4FB297"/>
<path d="M137.616 147.69C137.616 148.467 136.986 149.097 136.21 149.097C135.433 149.097 134.803 148.467 134.803 147.69C134.803 146.913 135.433 146.284 136.21 146.284C136.986 146.284 137.616 146.913 137.616 147.69Z" fill="#4FB297"/>
<path d="M40.0908 147.69C40.0908 148.467 39.461 149.097 38.6842 149.097C37.9073 149.097 37.2776 148.467 37.2776 147.69C37.2776 146.913 37.9073 146.284 38.6842 146.284C39.461 146.284 40.0908 146.913 40.0908 147.69Z" fill="#4FB297"/>
<path d="M186.379 147.69C186.379 148.467 185.749 149.097 184.972 149.097C184.195 149.097 183.566 148.467 183.566 147.69C183.566 146.913 184.195 146.284 184.972 146.284C185.749 146.284 186.379 146.913 186.379 147.69Z" fill="#4FB297"/>
<path d="M88.8535 147.69C88.8535 148.467 88.2237 149.097 87.4469 149.097C86.67 149.097 86.0403 148.467 86.0403 147.69C86.0403 146.913 86.67 146.284 87.4469 146.284C88.2237 146.284 88.8535 146.913 88.8535 147.69Z" fill="#4FB297"/>
<path d="M101.044 50.1649C101.044 50.9418 100.414 51.5715 99.6376 51.5715C98.8607 51.5715 98.2309 50.9418 98.2309 50.1649C98.2309 49.3881 98.8607 48.7583 99.6376 48.7583C100.414 48.7583 101.044 49.3881 101.044 50.1649Z" fill="#4FB297"/>
<path d="M3.5188 50.1649C3.5188 50.9418 2.88903 51.5715 2.11218 51.5715C1.33533 51.5715 0.705566 50.9418 0.705566 50.1649C0.705566 49.3881 1.33533 48.7583 2.11218 48.7583C2.88903 48.7583 3.5188 49.3881 3.5188 50.1649Z" fill="#4FB297"/>
<path d="M149.807 50.1649C149.807 50.9418 149.177 51.5715 148.4 51.5715C147.623 51.5715 146.994 50.9418 146.994 50.1649C146.994 49.3881 147.623 48.7583 148.4 48.7583C149.177 48.7583 149.807 49.3881 149.807 50.1649Z" fill="#4FB297"/>
<path d="M52.2815 50.1649C52.2815 50.9418 51.6517 51.5715 50.8749 51.5715C50.098 51.5715 49.4683 50.9418 49.4683 50.1649C49.4683 49.3881 50.098 48.7583 50.8749 48.7583C51.6517 48.7583 52.2815 49.3881 52.2815 50.1649Z" fill="#4FB297"/>
<path d="M125.426 50.1649C125.426 50.9418 124.796 51.5715 124.019 51.5715C123.242 51.5715 122.612 50.9418 122.612 50.1649C122.612 49.3881 123.242 48.7583 124.019 48.7583C124.796 48.7583 125.426 49.3881 125.426 50.1649Z" fill="#4FB297"/>
<path d="M27.9001 50.1649C27.9001 50.9418 27.2704 51.5715 26.4935 51.5715C25.7167 51.5715 25.0869 50.9418 25.0869 50.1649C25.0869 49.3881 25.7167 48.7583 26.4935 48.7583C27.2704 48.7583 27.9001 49.3881 27.9001 50.1649Z" fill="#4FB297"/>
<path d="M174.188 50.1649C174.188 50.9418 173.558 51.5715 172.782 51.5715C172.005 51.5715 171.375 50.9418 171.375 50.1649C171.375 49.3881 172.005 48.7583 172.782 48.7583C173.558 48.7583 174.188 49.3881 174.188 50.1649Z" fill="#4FB297"/>
<path d="M76.6628 50.1649C76.6628 50.9418 76.0331 51.5715 75.2562 51.5715C74.4794 51.5715 73.8496 50.9418 73.8496 50.1649C73.8496 49.3881 74.4794 48.7583 75.2562 48.7583C76.0331 48.7583 76.6628 49.3881 76.6628 50.1649Z" fill="#4FB297"/>
<path d="M113.235 50.1649C113.235 50.9418 112.605 51.5715 111.828 51.5715C111.051 51.5715 110.422 50.9418 110.422 50.1649C110.422 49.3881 111.051 48.7583 111.828 48.7583C112.605 48.7583 113.235 49.3881 113.235 50.1649Z" fill="#4FB297"/>
<path d="M15.7095 50.1649C15.7095 50.9418 15.0797 51.5715 14.3029 51.5715C13.526 51.5715 12.8962 50.9418 12.8962 50.1649C12.8962 49.3881 13.526 48.7583 14.3029 48.7583C15.0797 48.7583 15.7095 49.3881 15.7095 50.1649Z" fill="#4FB297"/>
<path d="M161.998 50.1649C161.998 50.9418 161.368 51.5715 160.591 51.5715C159.814 51.5715 159.184 50.9418 159.184 50.1649C159.184 49.3881 159.814 48.7583 160.591 48.7583C161.368 48.7583 161.998 49.3881 161.998 50.1649Z" fill="#4FB297"/>
<path d="M64.4722 50.1649C64.4722 50.9418 63.8424 51.5715 63.0655 51.5715C62.2887 51.5715 61.6589 50.9418 61.6589 50.1649C61.6589 49.3881 62.2887 48.7583 63.0655 48.7583C63.8424 48.7583 64.4722 49.3881 64.4722 50.1649Z" fill="#4FB297"/>
<path d="M137.616 50.1649C137.616 50.9418 136.986 51.5715 136.21 51.5715C135.433 51.5715 134.803 50.9418 134.803 50.1649C134.803 49.3881 135.433 48.7583 136.21 48.7583C136.986 48.7583 137.616 49.3881 137.616 50.1649Z" fill="#4FB297"/>
<path d="M40.0908 50.1649C40.0908 50.9418 39.461 51.5715 38.6842 51.5715C37.9073 51.5715 37.2776 50.9418 37.2776 50.1649C37.2776 49.3881 37.9073 48.7583 38.6842 48.7583C39.461 48.7583 40.0908 49.3881 40.0908 50.1649Z" fill="#4FB297"/>
<path d="M186.379 50.1649C186.379 50.9418 185.749 51.5715 184.972 51.5715C184.195 51.5715 183.566 50.9418 183.566 50.1649C183.566 49.3881 184.195 48.7583 184.972 48.7583C185.749 48.7583 186.379 49.3881 186.379 50.1649Z" fill="#4FB297"/>
<path d="M88.8535 50.1649C88.8535 50.9418 88.2237 51.5715 87.4469 51.5715C86.67 51.5715 86.0403 50.9418 86.0403 50.1649C86.0403 49.3881 86.67 48.7583 87.4469 48.7583C88.2237 48.7583 88.8535 49.3881 88.8535 50.1649Z" fill="#4FB297"/>
<path d="M101.044 123.309C101.044 124.086 100.414 124.716 99.6376 124.716C98.8607 124.716 98.2309 124.086 98.2309 123.309C98.2309 122.532 98.8607 121.902 99.6376 121.902C100.414 121.902 101.044 122.532 101.044 123.309Z" fill="#4FB297"/>
<path d="M3.5188 123.309C3.5188 124.086 2.88903 124.716 2.11218 124.716C1.33533 124.716 0.705566 124.086 0.705566 123.309C0.705566 122.532 1.33533 121.902 2.11218 121.902C2.88903 121.902 3.5188 122.532 3.5188 123.309Z" fill="#4FB297"/>
<path d="M149.807 123.309C149.807 124.086 149.177 124.716 148.4 124.716C147.623 124.716 146.994 124.086 146.994 123.309C146.994 122.532 147.623 121.902 148.4 121.902C149.177 121.902 149.807 122.532 149.807 123.309Z" fill="#4FB297"/>
<path d="M52.2815 123.309C52.2815 124.086 51.6517 124.716 50.8749 124.716C50.098 124.716 49.4683 124.086 49.4683 123.309C49.4683 122.532 50.098 121.902 50.8749 121.902C51.6517 121.902 52.2815 122.532 52.2815 123.309Z" fill="#4FB297"/>
<path d="M125.426 123.309C125.426 124.086 124.796 124.716 124.019 124.716C123.242 124.716 122.612 124.086 122.612 123.309C122.612 122.532 123.242 121.902 124.019 121.902C124.796 121.902 125.426 122.532 125.426 123.309Z" fill="#4FB297"/>
<path d="M27.9001 123.309C27.9001 124.086 27.2704 124.716 26.4935 124.716C25.7167 124.716 25.0869 124.086 25.0869 123.309C25.0869 122.532 25.7167 121.902 26.4935 121.902C27.2704 121.902 27.9001 122.532 27.9001 123.309Z" fill="#4FB297"/>
<path d="M174.188 123.309C174.188 124.086 173.558 124.716 172.782 124.716C172.005 124.716 171.375 124.086 171.375 123.309C171.375 122.532 172.005 121.902 172.782 121.902C173.558 121.902 174.188 122.532 174.188 123.309Z" fill="#4FB297"/>
<path d="M76.6628 123.309C76.6628 124.086 76.0331 124.716 75.2562 124.716C74.4794 124.716 73.8496 124.086 73.8496 123.309C73.8496 122.532 74.4794 121.902 75.2562 121.902C76.0331 121.902 76.6628 122.532 76.6628 123.309Z" fill="#4FB297"/>
<path d="M113.235 123.309C113.235 124.086 112.605 124.716 111.828 124.716C111.051 124.716 110.422 124.086 110.422 123.309C110.422 122.532 111.051 121.902 111.828 121.902C112.605 121.902 113.235 122.532 113.235 123.309Z" fill="#4FB297"/>
<path d="M15.7095 123.309C15.7095 124.086 15.0797 124.716 14.3029 124.716C13.526 124.716 12.8962 124.086 12.8962 123.309C12.8962 122.532 13.526 121.902 14.3029 121.902C15.0797 121.902 15.7095 122.532 15.7095 123.309Z" fill="#4FB297"/>
<path d="M161.998 123.309C161.998 124.086 161.368 124.716 160.591 124.716C159.814 124.716 159.184 124.086 159.184 123.309C159.184 122.532 159.814 121.902 160.591 121.902C161.368 121.902 161.998 122.532 161.998 123.309Z" fill="#4FB297"/>
<path d="M64.4722 123.309C64.4722 124.086 63.8424 124.716 63.0655 124.716C62.2887 124.716 61.6589 124.086 61.6589 123.309C61.6589 122.532 62.2887 121.902 63.0655 121.902C63.8424 121.902 64.4722 122.532 64.4722 123.309Z" fill="#4FB297"/>
<path d="M137.616 123.309C137.616 124.086 136.986 124.716 136.21 124.716C135.433 124.716 134.803 124.086 134.803 123.309C134.803 122.532 135.433 121.902 136.21 121.902C136.986 121.902 137.616 122.532 137.616 123.309Z" fill="#4FB297"/>
<path d="M40.0908 123.309C40.0908 124.086 39.461 124.716 38.6842 124.716C37.9073 124.716 37.2776 124.086 37.2776 123.309C37.2776 122.532 37.9073 121.902 38.6842 121.902C39.461 121.902 40.0908 122.532 40.0908 123.309Z" fill="#4FB297"/>
<path d="M186.379 123.309C186.379 124.086 185.749 124.716 184.972 124.716C184.195 124.716 183.566 124.086 183.566 123.309C183.566 122.532 184.195 121.902 184.972 121.902C185.749 121.902 186.379 122.532 186.379 123.309Z" fill="#4FB297"/>
<path d="M88.8535 123.309C88.8535 124.086 88.2237 124.716 87.4469 124.716C86.67 124.716 86.0403 124.086 86.0403 123.309C86.0403 122.532 86.67 121.902 87.4469 121.902C88.2237 121.902 88.8535 122.532 88.8535 123.309Z" fill="#4FB297"/>
<path d="M101.044 25.7836C101.044 26.5604 100.414 27.1902 99.6376 27.1902C98.8607 27.1902 98.2309 26.5604 98.2309 25.7836C98.2309 25.0067 98.8607 24.377 99.6376 24.377C100.414 24.377 101.044 25.0067 101.044 25.7836Z" fill="#4FB297"/>
<path d="M3.5188 25.7836C3.5188 26.5604 2.88903 27.1902 2.11218 27.1902C1.33533 27.1902 0.705566 26.5604 0.705566 25.7836C0.705566 25.0067 1.33533 24.377 2.11218 24.377C2.88903 24.377 3.5188 25.0067 3.5188 25.7836Z" fill="#4FB297"/>
<path d="M149.807 25.7836C149.807 26.5604 149.177 27.1902 148.4 27.1902C147.623 27.1902 146.994 26.5604 146.994 25.7836C146.994 25.0067 147.623 24.377 148.4 24.377C149.177 24.377 149.807 25.0067 149.807 25.7836Z" fill="#4FB297"/>
<path d="M52.2815 25.7836C52.2815 26.5604 51.6517 27.1902 50.8749 27.1902C50.098 27.1902 49.4683 26.5604 49.4683 25.7836C49.4683 25.0067 50.098 24.377 50.8749 24.377C51.6517 24.377 52.2815 25.0067 52.2815 25.7836Z" fill="#4FB297"/>
<path d="M125.426 25.7836C125.426 26.5604 124.796 27.1902 124.019 27.1902C123.242 27.1902 122.612 26.5604 122.612 25.7836C122.612 25.0067 123.242 24.377 124.019 24.377C124.796 24.377 125.426 25.0067 125.426 25.7836Z" fill="#4FB297"/>
<path d="M27.9001 25.7836C27.9001 26.5604 27.2704 27.1902 26.4935 27.1902C25.7167 27.1902 25.0869 26.5604 25.0869 25.7836C25.0869 25.0067 25.7167 24.377 26.4935 24.377C27.2704 24.377 27.9001 25.0067 27.9001 25.7836Z" fill="#4FB297"/>
<path d="M174.188 25.7836C174.188 26.5604 173.558 27.1902 172.782 27.1902C172.005 27.1902 171.375 26.5604 171.375 25.7836C171.375 25.0067 172.005 24.377 172.782 24.377C173.558 24.377 174.188 25.0067 174.188 25.7836Z" fill="#4FB297"/>
<path d="M76.6628 25.7836C76.6628 26.5604 76.0331 27.1902 75.2562 27.1902C74.4794 27.1902 73.8496 26.5604 73.8496 25.7836C73.8496 25.0067 74.4794 24.377 75.2562 24.377C76.0331 24.377 76.6628 25.0067 76.6628 25.7836Z" fill="#4FB297"/>
<path d="M113.235 25.7836C113.235 26.5604 112.605 27.1902 111.828 27.1902C111.051 27.1902 110.422 26.5604 110.422 25.7836C110.422 25.0067 111.051 24.377 111.828 24.377C112.605 24.377 113.235 25.0067 113.235 25.7836Z" fill="#4FB297"/>
<path d="M15.7095 25.7836C15.7095 26.5604 15.0797 27.1902 14.3029 27.1902C13.526 27.1902 12.8962 26.5604 12.8962 25.7836C12.8962 25.0067 13.526 24.377 14.3029 24.377C15.0797 24.377 15.7095 25.0067 15.7095 25.7836Z" fill="#4FB297"/>
<path d="M161.998 25.7836C161.998 26.5604 161.368 27.1902 160.591 27.1902C159.814 27.1902 159.184 26.5604 159.184 25.7836C159.184 25.0067 159.814 24.377 160.591 24.377C161.368 24.377 161.998 25.0067 161.998 25.7836Z" fill="#4FB297"/>
<path d="M64.4722 25.7836C64.4722 26.5604 63.8424 27.1902 63.0655 27.1902C62.2887 27.1902 61.6589 26.5604 61.6589 25.7836C61.6589 25.0067 62.2887 24.377 63.0655 24.377C63.8424 24.377 64.4722 25.0067 64.4722 25.7836Z" fill="#4FB297"/>
<path d="M137.616 25.7836C137.616 26.5604 136.986 27.1902 136.21 27.1902C135.433 27.1902 134.803 26.5604 134.803 25.7836C134.803 25.0067 135.433 24.377 136.21 24.377C136.986 24.377 137.616 25.0067 137.616 25.7836Z" fill="#4FB297"/>
<path d="M40.0908 25.7836C40.0908 26.5604 39.461 27.1902 38.6842 27.1902C37.9073 27.1902 37.2776 26.5604 37.2776 25.7836C37.2776 25.0067 37.9073 24.377 38.6842 24.377C39.461 24.377 40.0908 25.0067 40.0908 25.7836Z" fill="#4FB297"/>
<path d="M186.379 25.7836C186.379 26.5604 185.749 27.1902 184.972 27.1902C184.195 27.1902 183.566 26.5604 183.566 25.7836C183.566 25.0067 184.195 24.377 184.972 24.377C185.749 24.377 186.379 25.0067 186.379 25.7836Z" fill="#4FB297"/>
<path d="M88.8535 25.7836C88.8535 26.5604 88.2237 27.1902 87.4469 27.1902C86.67 27.1902 86.0403 26.5604 86.0403 25.7836C86.0403 25.0067 86.67 24.377 87.4469 24.377C88.2237 24.377 88.8535 25.0067 88.8535 25.7836Z" fill="#4FB297"/>
<path d="M101.044 172.072C101.044 172.848 100.414 173.478 99.6376 173.478C98.8607 173.478 98.2309 172.848 98.2309 172.072C98.2309 171.295 98.8607 170.665 99.6376 170.665C100.414 170.665 101.044 171.295 101.044 172.072Z" fill="#4FB297"/>
<path d="M3.5188 172.072C3.5188 172.848 2.88903 173.478 2.11218 173.478C1.33533 173.478 0.705566 172.848 0.705566 172.072C0.705566 171.295 1.33533 170.665 2.11218 170.665C2.88903 170.665 3.5188 171.295 3.5188 172.072Z" fill="#4FB297"/>
<path d="M149.807 172.072C149.807 172.848 149.177 173.478 148.4 173.478C147.623 173.478 146.994 172.848 146.994 172.072C146.994 171.295 147.623 170.665 148.4 170.665C149.177 170.665 149.807 171.295 149.807 172.072Z" fill="#4FB297"/>
<path d="M52.2815 172.072C52.2815 172.848 51.6517 173.478 50.8749 173.478C50.098 173.478 49.4683 172.848 49.4683 172.072C49.4683 171.295 50.098 170.665 50.8749 170.665C51.6517 170.665 52.2815 171.295 52.2815 172.072Z" fill="#4FB297"/>
<path d="M125.426 172.072C125.426 172.848 124.796 173.478 124.019 173.478C123.242 173.478 122.612 172.848 122.612 172.072C122.612 171.295 123.242 170.665 124.019 170.665C124.796 170.665 125.426 171.295 125.426 172.072Z" fill="#4FB297"/>
<path d="M27.9001 172.072C27.9001 172.848 27.2704 173.478 26.4935 173.478C25.7167 173.478 25.0869 172.848 25.0869 172.072C25.0869 171.295 25.7167 170.665 26.4935 170.665C27.2704 170.665 27.9001 171.295 27.9001 172.072Z" fill="#4FB297"/>
<path d="M174.188 172.072C174.188 172.848 173.558 173.478 172.782 173.478C172.005 173.478 171.375 172.848 171.375 172.072C171.375 171.295 172.005 170.665 172.782 170.665C173.558 170.665 174.188 171.295 174.188 172.072Z" fill="#4FB297"/>
<path d="M76.6628 172.072C76.6628 172.848 76.0331 173.478 75.2562 173.478C74.4794 173.478 73.8496 172.848 73.8496 172.072C73.8496 171.295 74.4794 170.665 75.2562 170.665C76.0331 170.665 76.6628 171.295 76.6628 172.072Z" fill="#4FB297"/>
<path d="M113.235 172.072C113.235 172.848 112.605 173.478 111.828 173.478C111.051 173.478 110.422 172.848 110.422 172.072C110.422 171.295 111.051 170.665 111.828 170.665C112.605 170.665 113.235 171.295 113.235 172.072Z" fill="#4FB297"/>
<path d="M15.7095 172.072C15.7095 172.848 15.0797 173.478 14.3029 173.478C13.526 173.478 12.8962 172.848 12.8962 172.072C12.8962 171.295 13.526 170.665 14.3029 170.665C15.0797 170.665 15.7095 171.295 15.7095 172.072Z" fill="#4FB297"/>
<path d="M161.998 172.072C161.998 172.848 161.368 173.478 160.591 173.478C159.814 173.478 159.184 172.848 159.184 172.072C159.184 171.295 159.814 170.665 160.591 170.665C161.368 170.665 161.998 171.295 161.998 172.072Z" fill="#4FB297"/>
<path d="M64.4722 172.072C64.4722 172.848 63.8424 173.478 63.0655 173.478C62.2887 173.478 61.6589 172.848 61.6589 172.072C61.6589 171.295 62.2887 170.665 63.0655 170.665C63.8424 170.665 64.4722 171.295 64.4722 172.072Z" fill="#4FB297"/>
<path d="M137.616 172.072C137.616 172.848 136.986 173.478 136.21 173.478C135.433 173.478 134.803 172.848 134.803 172.072C134.803 171.295 135.433 170.665 136.21 170.665C136.986 170.665 137.616 171.295 137.616 172.072Z" fill="#4FB297"/>
<path d="M40.0908 172.072C40.0908 172.848 39.461 173.478 38.6842 173.478C37.9073 173.478 37.2776 172.848 37.2776 172.072C37.2776 171.295 37.9073 170.665 38.6842 170.665C39.461 170.665 40.0908 171.295 40.0908 172.072Z" fill="#4FB297"/>
<path d="M186.379 172.072C186.379 172.848 185.749 173.478 184.972 173.478C184.195 173.478 183.566 172.848 183.566 172.072C183.566 171.295 184.195 170.665 184.972 170.665C185.749 170.665 186.379 171.295 186.379 172.072Z" fill="#4FB297"/>
<path d="M88.8535 172.072C88.8535 172.848 88.2237 173.478 87.4469 173.478C86.67 173.478 86.0403 172.848 86.0403 172.072C86.0403 171.295 86.67 170.665 87.4469 170.665C88.2237 170.665 88.8535 171.295 88.8535 172.072Z" fill="#4FB297"/>
<path d="M101.044 74.5463C101.044 75.3231 100.414 75.9529 99.6376 75.9529C98.8607 75.9529 98.2309 75.3231 98.2309 74.5463C98.2309 73.7694 98.8607 73.1396 99.6376 73.1396C100.414 73.1396 101.044 73.7694 101.044 74.5463Z" fill="#4FB297"/>
<path d="M3.5188 74.5463C3.5188 75.3231 2.88903 75.9529 2.11218 75.9529C1.33533 75.9529 0.705566 75.3231 0.705566 74.5463C0.705566 73.7694 1.33533 73.1396 2.11218 73.1396C2.88903 73.1396 3.5188 73.7694 3.5188 74.5463Z" fill="#4FB297"/>
<path d="M149.807 74.5463C149.807 75.3231 149.177 75.9529 148.4 75.9529C147.623 75.9529 146.994 75.3231 146.994 74.5463C146.994 73.7694 147.623 73.1396 148.4 73.1396C149.177 73.1396 149.807 73.7694 149.807 74.5463Z" fill="#4FB297"/>
<path d="M52.2815 74.5463C52.2815 75.3231 51.6517 75.9529 50.8749 75.9529C50.098 75.9529 49.4683 75.3231 49.4683 74.5463C49.4683 73.7694 50.098 73.1396 50.8749 73.1396C51.6517 73.1396 52.2815 73.7694 52.2815 74.5463Z" fill="#4FB297"/>
<path d="M125.426 74.5463C125.426 75.3231 124.796 75.9529 124.019 75.9529C123.242 75.9529 122.612 75.3231 122.612 74.5463C122.612 73.7694 123.242 73.1396 124.019 73.1396C124.796 73.1396 125.426 73.7694 125.426 74.5463Z" fill="#4FB297"/>
<path d="M27.9001 74.5463C27.9001 75.3231 27.2704 75.9529 26.4935 75.9529C25.7167 75.9529 25.0869 75.3231 25.0869 74.5463C25.0869 73.7694 25.7167 73.1396 26.4935 73.1396C27.2704 73.1396 27.9001 73.7694 27.9001 74.5463Z" fill="#4FB297"/>
<path d="M174.188 74.5463C174.188 75.3231 173.558 75.9529 172.782 75.9529C172.005 75.9529 171.375 75.3231 171.375 74.5463C171.375 73.7694 172.005 73.1396 172.782 73.1396C173.558 73.1396 174.188 73.7694 174.188 74.5463Z" fill="#4FB297"/>
<path d="M76.6628 74.5463C76.6628 75.3231 76.0331 75.9529 75.2562 75.9529C74.4794 75.9529 73.8496 75.3231 73.8496 74.5463C73.8496 73.7694 74.4794 73.1396 75.2562 73.1396C76.0331 73.1396 76.6628 73.7694 76.6628 74.5463Z" fill="#4FB297"/>
<path d="M113.235 74.5463C113.235 75.3231 112.605 75.9529 111.828 75.9529C111.051 75.9529 110.422 75.3231 110.422 74.5463C110.422 73.7694 111.051 73.1396 111.828 73.1396C112.605 73.1396 113.235 73.7694 113.235 74.5463Z" fill="#4FB297"/>
<path d="M15.7095 74.5463C15.7095 75.3231 15.0797 75.9529 14.3029 75.9529C13.526 75.9529 12.8962 75.3231 12.8962 74.5463C12.8962 73.7694 13.526 73.1396 14.3029 73.1396C15.0797 73.1396 15.7095 73.7694 15.7095 74.5463Z" fill="#4FB297"/>
<path d="M161.998 74.5463C161.998 75.3231 161.368 75.9529 160.591 75.9529C159.814 75.9529 159.184 75.3231 159.184 74.5463C159.184 73.7694 159.814 73.1396 160.591 73.1396C161.368 73.1396 161.998 73.7694 161.998 74.5463Z" fill="#4FB297"/>
<path d="M64.4722 74.5463C64.4722 75.3231 63.8424 75.9529 63.0655 75.9529C62.2887 75.9529 61.6589 75.3231 61.6589 74.5463C61.6589 73.7694 62.2887 73.1396 63.0655 73.1396C63.8424 73.1396 64.4722 73.7694 64.4722 74.5463Z" fill="#4FB297"/>
<path d="M137.616 74.5463C137.616 75.3231 136.986 75.9529 136.21 75.9529C135.433 75.9529 134.803 75.3231 134.803 74.5463C134.803 73.7694 135.433 73.1396 136.21 73.1396C136.986 73.1396 137.616 73.7694 137.616 74.5463Z" fill="#4FB297"/>
<path d="M40.0908 74.5463C40.0908 75.3231 39.461 75.9529 38.6842 75.9529C37.9073 75.9529 37.2776 75.3231 37.2776 74.5463C37.2776 73.7694 37.9073 73.1396 38.6842 73.1396C39.461 73.1396 40.0908 73.7694 40.0908 74.5463Z" fill="#4FB297"/>
<path d="M186.379 74.5463C186.379 75.3231 185.749 75.9529 184.972 75.9529C184.195 75.9529 183.566 75.3231 183.566 74.5463C183.566 73.7694 184.195 73.1396 184.972 73.1396C185.749 73.1396 186.379 73.7694 186.379 74.5463Z" fill="#4FB297"/>
<path d="M88.8535 74.5463C88.8535 75.3231 88.2237 75.9529 87.4469 75.9529C86.67 75.9529 86.0403 75.3231 86.0403 74.5463C86.0403 73.7694 86.67 73.1396 87.4469 73.1396C88.2237 73.1396 88.8535 73.7694 88.8535 74.5463Z" fill="#4FB297"/>
<path d="M101.044 111.118C101.044 111.895 100.414 112.525 99.6376 112.525C98.8607 112.525 98.2309 111.895 98.2309 111.118C98.2309 110.341 98.8607 109.712 99.6376 109.712C100.414 109.712 101.044 110.341 101.044 111.118Z" fill="#4FB297"/>
<path d="M3.5188 111.118C3.5188 111.895 2.88903 112.525 2.11218 112.525C1.33533 112.525 0.705566 111.895 0.705566 111.118C0.705566 110.341 1.33533 109.712 2.11218 109.712C2.88903 109.712 3.5188 110.341 3.5188 111.118Z" fill="#4FB297"/>
<path d="M149.807 111.118C149.807 111.895 149.177 112.525 148.4 112.525C147.623 112.525 146.994 111.895 146.994 111.118C146.994 110.341 147.623 109.712 148.4 109.712C149.177 109.712 149.807 110.341 149.807 111.118Z" fill="#4FB297"/>
<path d="M52.2815 111.118C52.2815 111.895 51.6517 112.525 50.8749 112.525C50.098 112.525 49.4683 111.895 49.4683 111.118C49.4683 110.341 50.098 109.712 50.8749 109.712C51.6517 109.712 52.2815 110.341 52.2815 111.118Z" fill="#4FB297"/>
<path d="M125.426 111.118C125.426 111.895 124.796 112.525 124.019 112.525C123.242 112.525 122.612 111.895 122.612 111.118C122.612 110.341 123.242 109.712 124.019 109.712C124.796 109.712 125.426 110.341 125.426 111.118Z" fill="#4FB297"/>
<path d="M27.9001 111.118C27.9001 111.895 27.2704 112.525 26.4935 112.525C25.7167 112.525 25.0869 111.895 25.0869 111.118C25.0869 110.341 25.7167 109.712 26.4935 109.712C27.2704 109.712 27.9001 110.341 27.9001 111.118Z" fill="#4FB297"/>
<path d="M174.188 111.118C174.188 111.895 173.558 112.525 172.782 112.525C172.005 112.525 171.375 111.895 171.375 111.118C171.375 110.341 172.005 109.712 172.782 109.712C173.558 109.712 174.188 110.341 174.188 111.118Z" fill="#4FB297"/>
<path d="M76.6628 111.118C76.6628 111.895 76.0331 112.525 75.2562 112.525C74.4794 112.525 73.8496 111.895 73.8496 111.118C73.8496 110.341 74.4794 109.712 75.2562 109.712C76.0331 109.712 76.6628 110.341 76.6628 111.118Z" fill="#4FB297"/>
<path d="M113.235 111.118C113.235 111.895 112.605 112.525 111.828 112.525C111.051 112.525 110.422 111.895 110.422 111.118C110.422 110.341 111.051 109.712 111.828 109.712C112.605 109.712 113.235 110.341 113.235 111.118Z" fill="#4FB297"/>
<path d="M15.7095 111.118C15.7095 111.895 15.0797 112.525 14.3029 112.525C13.526 112.525 12.8962 111.895 12.8962 111.118C12.8962 110.341 13.526 109.712 14.3029 109.712C15.0797 109.712 15.7095 110.341 15.7095 111.118Z" fill="#4FB297"/>
<path d="M161.998 111.118C161.998 111.895 161.368 112.525 160.591 112.525C159.814 112.525 159.184 111.895 159.184 111.118C159.184 110.341 159.814 109.712 160.591 109.712C161.368 109.712 161.998 110.341 161.998 111.118Z" fill="#4FB297"/>
<path d="M64.4722 111.118C64.4722 111.895 63.8424 112.525 63.0655 112.525C62.2887 112.525 61.6589 111.895 61.6589 111.118C61.6589 110.341 62.2887 109.712 63.0655 109.712C63.8424 109.712 64.4722 110.341 64.4722 111.118Z" fill="#4FB297"/>
<path d="M137.616 111.118C137.616 111.895 136.986 112.525 136.21 112.525C135.433 112.525 134.803 111.895 134.803 111.118C134.803 110.341 135.433 109.712 136.21 109.712C136.986 109.712 137.616 110.341 137.616 111.118Z" fill="#4FB297"/>
<path d="M40.0908 111.118C40.0908 111.895 39.461 112.525 38.6842 112.525C37.9073 112.525 37.2776 111.895 37.2776 111.118C37.2776 110.341 37.9073 109.712 38.6842 109.712C39.461 109.712 40.0908 110.341 40.0908 111.118Z" fill="#4FB297"/>
<path d="M186.379 111.118C186.379 111.895 185.749 112.525 184.972 112.525C184.195 112.525 183.566 111.895 183.566 111.118C183.566 110.341 184.195 109.712 184.972 109.712C185.749 109.712 186.379 110.341 186.379 111.118Z" fill="#4FB297"/>
<path d="M88.8535 111.118C88.8535 111.895 88.2237 112.525 87.4469 112.525C86.67 112.525 86.0403 111.895 86.0403 111.118C86.0403 110.341 86.67 109.712 87.4469 109.712C88.2237 109.712 88.8535 110.341 88.8535 111.118Z" fill="#4FB297"/>
<path d="M101.044 13.5929C101.044 14.3697 100.414 14.9995 99.6376 14.9995C98.8607 14.9995 98.2309 14.3697 98.2309 13.5929C98.2309 12.816 98.8607 12.1863 99.6376 12.1863C100.414 12.1863 101.044 12.816 101.044 13.5929Z" fill="#4FB297"/>
<path d="M3.5188 13.5929C3.5188 14.3697 2.88903 14.9995 2.11218 14.9995C1.33533 14.9995 0.705566 14.3697 0.705566 13.5929C0.705566 12.816 1.33533 12.1863 2.11218 12.1863C2.88903 12.1863 3.5188 12.816 3.5188 13.5929Z" fill="#4FB297"/>
<path d="M149.807 13.5929C149.807 14.3697 149.177 14.9995 148.4 14.9995C147.623 14.9995 146.994 14.3697 146.994 13.5929C146.994 12.816 147.623 12.1863 148.4 12.1863C149.177 12.1863 149.807 12.816 149.807 13.5929Z" fill="#4FB297"/>
<path d="M52.2815 13.5929C52.2815 14.3697 51.6517 14.9995 50.8749 14.9995C50.098 14.9995 49.4683 14.3697 49.4683 13.5929C49.4683 12.816 50.098 12.1863 50.8749 12.1863C51.6517 12.1863 52.2815 12.816 52.2815 13.5929Z" fill="#4FB297"/>
<path d="M125.426 13.5929C125.426 14.3697 124.796 14.9995 124.019 14.9995C123.242 14.9995 122.612 14.3697 122.612 13.5929C122.612 12.816 123.242 12.1863 124.019 12.1863C124.796 12.1863 125.426 12.816 125.426 13.5929Z" fill="#4FB297"/>
<path d="M27.9001 13.5929C27.9001 14.3697 27.2704 14.9995 26.4935 14.9995C25.7167 14.9995 25.0869 14.3697 25.0869 13.5929C25.0869 12.816 25.7167 12.1863 26.4935 12.1863C27.2704 12.1863 27.9001 12.816 27.9001 13.5929Z" fill="#4FB297"/>
<path d="M174.188 13.5929C174.188 14.3697 173.558 14.9995 172.782 14.9995C172.005 14.9995 171.375 14.3697 171.375 13.5929C171.375 12.816 172.005 12.1863 172.782 12.1863C173.558 12.1863 174.188 12.816 174.188 13.5929Z" fill="#4FB297"/>
<path d="M76.6628 13.5929C76.6628 14.3697 76.0331 14.9995 75.2562 14.9995C74.4794 14.9995 73.8496 14.3697 73.8496 13.5929C73.8496 12.816 74.4794 12.1863 75.2562 12.1863C76.0331 12.1863 76.6628 12.816 76.6628 13.5929Z" fill="#4FB297"/>
<path d="M113.235 13.5929C113.235 14.3697 112.605 14.9995 111.828 14.9995C111.051 14.9995 110.422 14.3697 110.422 13.5929C110.422 12.816 111.051 12.1863 111.828 12.1863C112.605 12.1863 113.235 12.816 113.235 13.5929Z" fill="#4FB297"/>
<path d="M15.7095 13.5929C15.7095 14.3697 15.0797 14.9995 14.3029 14.9995C13.526 14.9995 12.8962 14.3697 12.8962 13.5929C12.8962 12.816 13.526 12.1863 14.3029 12.1863C15.0797 12.1863 15.7095 12.816 15.7095 13.5929Z" fill="#4FB297"/>
<path d="M161.998 13.5929C161.998 14.3697 161.368 14.9995 160.591 14.9995C159.814 14.9995 159.184 14.3697 159.184 13.5929C159.184 12.816 159.814 12.1863 160.591 12.1863C161.368 12.1863 161.998 12.816 161.998 13.5929Z" fill="#4FB297"/>
<path d="M64.4722 13.5929C64.4722 14.3697 63.8424 14.9995 63.0655 14.9995C62.2887 14.9995 61.6589 14.3697 61.6589 13.5929C61.6589 12.816 62.2887 12.1863 63.0655 12.1863C63.8424 12.1863 64.4722 12.816 64.4722 13.5929Z" fill="#4FB297"/>
<path d="M137.616 13.5929C137.616 14.3697 136.986 14.9995 136.21 14.9995C135.433 14.9995 134.803 14.3697 134.803 13.5929C134.803 12.816 135.433 12.1863 136.21 12.1863C136.986 12.1863 137.616 12.816 137.616 13.5929Z" fill="#4FB297"/>
<path d="M40.0908 13.5929C40.0908 14.3697 39.461 14.9995 38.6842 14.9995C37.9073 14.9995 37.2776 14.3697 37.2776 13.5929C37.2776 12.816 37.9073 12.1863 38.6842 12.1863C39.461 12.1863 40.0908 12.816 40.0908 13.5929Z" fill="#4FB297"/>
<path d="M186.379 13.5929C186.379 14.3697 185.749 14.9995 184.972 14.9995C184.195 14.9995 183.566 14.3697 183.566 13.5929C183.566 12.816 184.195 12.1863 184.972 12.1863C185.749 12.1863 186.379 12.816 186.379 13.5929Z" fill="#4FB297"/>
<path d="M88.8535 13.5929C88.8535 14.3697 88.2237 14.9995 87.4469 14.9995C86.67 14.9995 86.0403 14.3697 86.0403 13.5929C86.0403 12.816 86.67 12.1863 87.4469 12.1863C88.2237 12.1863 88.8535 12.816 88.8535 13.5929Z" fill="#4FB297"/>
<path d="M101.044 159.881C101.044 160.658 100.414 161.288 99.6376 161.288C98.8607 161.288 98.2309 160.658 98.2309 159.881C98.2309 159.104 98.8607 158.474 99.6376 158.474C100.414 158.474 101.044 159.104 101.044 159.881Z" fill="#4FB297"/>
<path d="M3.5188 159.881C3.5188 160.658 2.88903 161.288 2.11218 161.288C1.33533 161.288 0.705566 160.658 0.705566 159.881C0.705566 159.104 1.33533 158.474 2.11218 158.474C2.88903 158.474 3.5188 159.104 3.5188 159.881Z" fill="#4FB297"/>
<path d="M149.807 159.881C149.807 160.658 149.177 161.288 148.4 161.288C147.623 161.288 146.994 160.658 146.994 159.881C146.994 159.104 147.623 158.474 148.4 158.474C149.177 158.474 149.807 159.104 149.807 159.881Z" fill="#4FB297"/>
<path d="M52.2815 159.881C52.2815 160.658 51.6517 161.288 50.8749 161.288C50.098 161.288 49.4683 160.658 49.4683 159.881C49.4683 159.104 50.098 158.474 50.8749 158.474C51.6517 158.474 52.2815 159.104 52.2815 159.881Z" fill="#4FB297"/>
<path d="M125.426 159.881C125.426 160.658 124.796 161.288 124.019 161.288C123.242 161.288 122.612 160.658 122.612 159.881C122.612 159.104 123.242 158.474 124.019 158.474C124.796 158.474 125.426 159.104 125.426 159.881Z" fill="#4FB297"/>
<path d="M27.9001 159.881C27.9001 160.658 27.2704 161.288 26.4935 161.288C25.7167 161.288 25.0869 160.658 25.0869 159.881C25.0869 159.104 25.7167 158.474 26.4935 158.474C27.2704 158.474 27.9001 159.104 27.9001 159.881Z" fill="#4FB297"/>
<path d="M174.188 159.881C174.188 160.658 173.558 161.288 172.782 161.288C172.005 161.288 171.375 160.658 171.375 159.881C171.375 159.104 172.005 158.474 172.782 158.474C173.558 158.474 174.188 159.104 174.188 159.881Z" fill="#4FB297"/>
<path d="M76.6628 159.881C76.6628 160.658 76.0331 161.288 75.2562 161.288C74.4794 161.288 73.8496 160.658 73.8496 159.881C73.8496 159.104 74.4794 158.474 75.2562 158.474C76.0331 158.474 76.6628 159.104 76.6628 159.881Z" fill="#4FB297"/>
<path d="M113.235 159.881C113.235 160.658 112.605 161.288 111.828 161.288C111.051 161.288 110.422 160.658 110.422 159.881C110.422 159.104 111.051 158.474 111.828 158.474C112.605 158.474 113.235 159.104 113.235 159.881Z" fill="#4FB297"/>
<path d="M15.7095 159.881C15.7095 160.658 15.0797 161.288 14.3029 161.288C13.526 161.288 12.8962 160.658 12.8962 159.881C12.8962 159.104 13.526 158.474 14.3029 158.474C15.0797 158.474 15.7095 159.104 15.7095 159.881Z" fill="#4FB297"/>
<path d="M161.998 159.881C161.998 160.658 161.368 161.288 160.591 161.288C159.814 161.288 159.184 160.658 159.184 159.881C159.184 159.104 159.814 158.474 160.591 158.474C161.368 158.474 161.998 159.104 161.998 159.881Z" fill="#4FB297"/>
<path d="M64.4722 159.881C64.4722 160.658 63.8424 161.288 63.0655 161.288C62.2887 161.288 61.6589 160.658 61.6589 159.881C61.6589 159.104 62.2887 158.474 63.0655 158.474C63.8424 158.474 64.4722 159.104 64.4722 159.881Z" fill="#4FB297"/>
<path d="M137.616 159.881C137.616 160.658 136.986 161.288 136.21 161.288C135.433 161.288 134.803 160.658 134.803 159.881C134.803 159.104 135.433 158.474 136.21 158.474C136.986 158.474 137.616 159.104 137.616 159.881Z" fill="#4FB297"/>
<path d="M40.0908 159.881C40.0908 160.658 39.461 161.288 38.6842 161.288C37.9073 161.288 37.2776 160.658 37.2776 159.881C37.2776 159.104 37.9073 158.474 38.6842 158.474C39.461 158.474 40.0908 159.104 40.0908 159.881Z" fill="#4FB297"/>
<path d="M186.379 159.881C186.379 160.658 185.749 161.288 184.972 161.288C184.195 161.288 183.566 160.658 183.566 159.881C183.566 159.104 184.195 158.474 184.972 158.474C185.749 158.474 186.379 159.104 186.379 159.881Z" fill="#4FB297"/>
<path d="M88.8535 159.881C88.8535 160.658 88.2237 161.288 87.4469 161.288C86.67 161.288 86.0403 160.658 86.0403 159.881C86.0403 159.104 86.67 158.474 87.4469 158.474C88.2237 158.474 88.8535 159.104 88.8535 159.881Z" fill="#4FB297"/>
<path d="M101.044 62.3556C101.044 63.1324 100.414 63.7622 99.6376 63.7622C98.8607 63.7622 98.2309 63.1324 98.2309 62.3556C98.2309 61.5787 98.8607 60.949 99.6376 60.949C100.414 60.949 101.044 61.5787 101.044 62.3556Z" fill="#4FB297"/>
<path d="M3.5188 62.3556C3.5188 63.1324 2.88903 63.7622 2.11218 63.7622C1.33533 63.7622 0.705566 63.1324 0.705566 62.3556C0.705566 61.5787 1.33533 60.949 2.11218 60.949C2.88903 60.949 3.5188 61.5787 3.5188 62.3556Z" fill="#4FB297"/>
<path d="M149.807 62.3556C149.807 63.1324 149.177 63.7622 148.4 63.7622C147.623 63.7622 146.994 63.1324 146.994 62.3556C146.994 61.5787 147.623 60.949 148.4 60.949C149.177 60.949 149.807 61.5787 149.807 62.3556Z" fill="#4FB297"/>
<path d="M52.2815 62.3556C52.2815 63.1324 51.6517 63.7622 50.8749 63.7622C50.098 63.7622 49.4683 63.1324 49.4683 62.3556C49.4683 61.5787 50.098 60.949 50.8749 60.949C51.6517 60.949 52.2815 61.5787 52.2815 62.3556Z" fill="#4FB297"/>
<path d="M125.426 62.3556C125.426 63.1324 124.796 63.7622 124.019 63.7622C123.242 63.7622 122.612 63.1324 122.612 62.3556C122.612 61.5787 123.242 60.949 124.019 60.949C124.796 60.949 125.426 61.5787 125.426 62.3556Z" fill="#4FB297"/>
<path d="M27.9001 62.3556C27.9001 63.1324 27.2704 63.7622 26.4935 63.7622C25.7167 63.7622 25.0869 63.1324 25.0869 62.3556C25.0869 61.5787 25.7167 60.949 26.4935 60.949C27.2704 60.949 27.9001 61.5787 27.9001 62.3556Z" fill="#4FB297"/>
<path d="M174.188 62.3556C174.188 63.1324 173.558 63.7622 172.782 63.7622C172.005 63.7622 171.375 63.1324 171.375 62.3556C171.375 61.5787 172.005 60.949 172.782 60.949C173.558 60.949 174.188 61.5787 174.188 62.3556Z" fill="#4FB297"/>
<path d="M76.6628 62.3556C76.6628 63.1324 76.0331 63.7622 75.2562 63.7622C74.4794 63.7622 73.8496 63.1324 73.8496 62.3556C73.8496 61.5787 74.4794 60.949 75.2562 60.949C76.0331 60.949 76.6628 61.5787 76.6628 62.3556Z" fill="#4FB297"/>
<path d="M113.235 62.3556C113.235 63.1324 112.605 63.7622 111.828 63.7622C111.051 63.7622 110.422 63.1324 110.422 62.3556C110.422 61.5787 111.051 60.949 111.828 60.949C112.605 60.949 113.235 61.5787 113.235 62.3556Z" fill="#4FB297"/>
<path d="M15.7095 62.3556C15.7095 63.1324 15.0797 63.7622 14.3029 63.7622C13.526 63.7622 12.8962 63.1324 12.8962 62.3556C12.8962 61.5787 13.526 60.949 14.3029 60.949C15.0797 60.949 15.7095 61.5787 15.7095 62.3556Z" fill="#4FB297"/>
<path d="M161.998 62.3556C161.998 63.1324 161.368 63.7622 160.591 63.7622C159.814 63.7622 159.184 63.1324 159.184 62.3556C159.184 61.5787 159.814 60.949 160.591 60.949C161.368 60.949 161.998 61.5787 161.998 62.3556Z" fill="#4FB297"/>
<path d="M64.4722 62.3556C64.4722 63.1324 63.8424 63.7622 63.0655 63.7622C62.2887 63.7622 61.6589 63.1324 61.6589 62.3556C61.6589 61.5787 62.2887 60.949 63.0655 60.949C63.8424 60.949 64.4722 61.5787 64.4722 62.3556Z" fill="#4FB297"/>
<path d="M137.616 62.3556C137.616 63.1324 136.986 63.7622 136.21 63.7622C135.433 63.7622 134.803 63.1324 134.803 62.3556C134.803 61.5787 135.433 60.949 136.21 60.949C136.986 60.949 137.616 61.5787 137.616 62.3556Z" fill="#4FB297"/>
<path d="M40.0908 62.3556C40.0908 63.1324 39.461 63.7622 38.6842 63.7622C37.9073 63.7622 37.2776 63.1324 37.2776 62.3556C37.2776 61.5787 37.9073 60.949 38.6842 60.949C39.461 60.949 40.0908 61.5787 40.0908 62.3556Z" fill="#4FB297"/>
<path d="M186.379 62.3556C186.379 63.1324 185.749 63.7622 184.972 63.7622C184.195 63.7622 183.566 63.1324 183.566 62.3556C183.566 61.5787 184.195 60.949 184.972 60.949C185.749 60.949 186.379 61.5787 186.379 62.3556Z" fill="#4FB297"/>
<path d="M88.8535 62.3556C88.8535 63.1324 88.2237 63.7622 87.4469 63.7622C86.67 63.7622 86.0403 63.1324 86.0403 62.3556C86.0403 61.5787 86.67 60.949 87.4469 60.949C88.2237 60.949 88.8535 61.5787 88.8535 62.3556Z" fill="#4FB297"/>
<path d="M101.044 135.5C101.044 136.276 100.414 136.906 99.6376 136.906C98.8607 136.906 98.2309 136.276 98.2309 135.5C98.2309 134.723 98.8607 134.093 99.6376 134.093C100.414 134.093 101.044 134.723 101.044 135.5Z" fill="#4FB297"/>
<path d="M3.5188 135.5C3.5188 136.276 2.88903 136.906 2.11218 136.906C1.33533 136.906 0.705566 136.276 0.705566 135.5C0.705566 134.723 1.33533 134.093 2.11218 134.093C2.88903 134.093 3.5188 134.723 3.5188 135.5Z" fill="#4FB297"/>
<path d="M149.807 135.5C149.807 136.276 149.177 136.906 148.4 136.906C147.623 136.906 146.994 136.276 146.994 135.5C146.994 134.723 147.623 134.093 148.4 134.093C149.177 134.093 149.807 134.723 149.807 135.5Z" fill="#4FB297"/>
<path d="M52.2815 135.5C52.2815 136.276 51.6517 136.906 50.8749 136.906C50.098 136.906 49.4683 136.276 49.4683 135.5C49.4683 134.723 50.098 134.093 50.8749 134.093C51.6517 134.093 52.2815 134.723 52.2815 135.5Z" fill="#4FB297"/>
<path d="M125.426 135.5C125.426 136.276 124.796 136.906 124.019 136.906C123.242 136.906 122.612 136.276 122.612 135.5C122.612 134.723 123.242 134.093 124.019 134.093C124.796 134.093 125.426 134.723 125.426 135.5Z" fill="#4FB297"/>
<path d="M27.9001 135.5C27.9001 136.276 27.2704 136.906 26.4935 136.906C25.7167 136.906 25.0869 136.276 25.0869 135.5C25.0869 134.723 25.7167 134.093 26.4935 134.093C27.2704 134.093 27.9001 134.723 27.9001 135.5Z" fill="#4FB297"/>
<path d="M174.188 135.5C174.188 136.276 173.558 136.906 172.782 136.906C172.005 136.906 171.375 136.276 171.375 135.5C171.375 134.723 172.005 134.093 172.782 134.093C173.558 134.093 174.188 134.723 174.188 135.5Z" fill="#4FB297"/>
<path d="M76.6628 135.5C76.6628 136.276 76.0331 136.906 75.2562 136.906C74.4794 136.906 73.8496 136.276 73.8496 135.5C73.8496 134.723 74.4794 134.093 75.2562 134.093C76.0331 134.093 76.6628 134.723 76.6628 135.5Z" fill="#4FB297"/>
<path d="M113.235 135.5C113.235 136.276 112.605 136.906 111.828 136.906C111.051 136.906 110.422 136.276 110.422 135.5C110.422 134.723 111.051 134.093 111.828 134.093C112.605 134.093 113.235 134.723 113.235 135.5Z" fill="#4FB297"/>
<path d="M15.7095 135.5C15.7095 136.276 15.0797 136.906 14.3029 136.906C13.526 136.906 12.8962 136.276 12.8962 135.5C12.8962 134.723 13.526 134.093 14.3029 134.093C15.0797 134.093 15.7095 134.723 15.7095 135.5Z" fill="#4FB297"/>
<path d="M161.998 135.5C161.998 136.276 161.368 136.906 160.591 136.906C159.814 136.906 159.184 136.276 159.184 135.5C159.184 134.723 159.814 134.093 160.591 134.093C161.368 134.093 161.998 134.723 161.998 135.5Z" fill="#4FB297"/>
<path d="M64.4722 135.5C64.4722 136.276 63.8424 136.906 63.0655 136.906C62.2887 136.906 61.6589 136.276 61.6589 135.5C61.6589 134.723 62.2887 134.093 63.0655 134.093C63.8424 134.093 64.4722 134.723 64.4722 135.5Z" fill="#4FB297"/>
<path d="M137.616 135.5C137.616 136.276 136.986 136.906 136.21 136.906C135.433 136.906 134.803 136.276 134.803 135.5C134.803 134.723 135.433 134.093 136.21 134.093C136.986 134.093 137.616 134.723 137.616 135.5Z" fill="#4FB297"/>
<path d="M40.0908 135.5C40.0908 136.276 39.461 136.906 38.6842 136.906C37.9073 136.906 37.2776 136.276 37.2776 135.5C37.2776 134.723 37.9073 134.093 38.6842 134.093C39.461 134.093 40.0908 134.723 40.0908 135.5Z" fill="#4FB297"/>
<path d="M186.379 135.5C186.379 136.276 185.749 136.906 184.972 136.906C184.195 136.906 183.566 136.276 183.566 135.5C183.566 134.723 184.195 134.093 184.972 134.093C185.749 134.093 186.379 134.723 186.379 135.5Z" fill="#4FB297"/>
<path d="M88.8535 135.5C88.8535 136.276 88.2237 136.906 87.4469 136.906C86.67 136.906 86.0403 136.276 86.0403 135.5C86.0403 134.723 86.67 134.093 87.4469 134.093C88.2237 134.093 88.8535 134.723 88.8535 135.5Z" fill="#4FB297"/>
<path d="M101.044 37.9742C101.044 38.7511 100.414 39.3809 99.6376 39.3809C98.8607 39.3809 98.2309 38.7511 98.2309 37.9742C98.2309 37.1974 98.8607 36.5676 99.6376 36.5676C100.414 36.5676 101.044 37.1974 101.044 37.9742Z" fill="#4FB297"/>
<path d="M3.5188 37.9742C3.5188 38.7511 2.88903 39.3809 2.11218 39.3809C1.33533 39.3809 0.705566 38.7511 0.705566 37.9742C0.705566 37.1974 1.33533 36.5676 2.11218 36.5676C2.88903 36.5676 3.5188 37.1974 3.5188 37.9742Z" fill="#4FB297"/>
<path d="M149.807 37.9742C149.807 38.7511 149.177 39.3809 148.4 39.3809C147.623 39.3809 146.994 38.7511 146.994 37.9742C146.994 37.1974 147.623 36.5676 148.4 36.5676C149.177 36.5676 149.807 37.1974 149.807 37.9742Z" fill="#4FB297"/>
<path d="M52.2815 37.9742C52.2815 38.7511 51.6517 39.3809 50.8749 39.3809C50.098 39.3809 49.4683 38.7511 49.4683 37.9742C49.4683 37.1974 50.098 36.5676 50.8749 36.5676C51.6517 36.5676 52.2815 37.1974 52.2815 37.9742Z" fill="#4FB297"/>
<path d="M125.426 37.9742C125.426 38.7511 124.796 39.3809 124.019 39.3809C123.242 39.3809 122.612 38.7511 122.612 37.9742C122.612 37.1974 123.242 36.5676 124.019 36.5676C124.796 36.5676 125.426 37.1974 125.426 37.9742Z" fill="#4FB297"/>
<path d="M27.9001 37.9742C27.9001 38.7511 27.2704 39.3809 26.4935 39.3809C25.7167 39.3809 25.0869 38.7511 25.0869 37.9742C25.0869 37.1974 25.7167 36.5676 26.4935 36.5676C27.2704 36.5676 27.9001 37.1974 27.9001 37.9742Z" fill="#4FB297"/>
<path d="M174.188 37.9742C174.188 38.7511 173.558 39.3809 172.782 39.3809C172.005 39.3809 171.375 38.7511 171.375 37.9742C171.375 37.1974 172.005 36.5676 172.782 36.5676C173.558 36.5676 174.188 37.1974 174.188 37.9742Z" fill="#4FB297"/>
<path d="M76.6628 37.9742C76.6628 38.7511 76.0331 39.3809 75.2562 39.3809C74.4794 39.3809 73.8496 38.7511 73.8496 37.9742C73.8496 37.1974 74.4794 36.5676 75.2562 36.5676C76.0331 36.5676 76.6628 37.1974 76.6628 37.9742Z" fill="#4FB297"/>
<path d="M113.235 37.9742C113.235 38.7511 112.605 39.3809 111.828 39.3809C111.051 39.3809 110.422 38.7511 110.422 37.9742C110.422 37.1974 111.051 36.5676 111.828 36.5676C112.605 36.5676 113.235 37.1974 113.235 37.9742Z" fill="#4FB297"/>
<path d="M15.7095 37.9742C15.7095 38.7511 15.0797 39.3809 14.3029 39.3809C13.526 39.3809 12.8962 38.7511 12.8962 37.9742C12.8962 37.1974 13.526 36.5676 14.3029 36.5676C15.0797 36.5676 15.7095 37.1974 15.7095 37.9742Z" fill="#4FB297"/>
<path d="M161.998 37.9742C161.998 38.7511 161.368 39.3809 160.591 39.3809C159.814 39.3809 159.184 38.7511 159.184 37.9742C159.184 37.1974 159.814 36.5676 160.591 36.5676C161.368 36.5676 161.998 37.1974 161.998 37.9742Z" fill="#4FB297"/>
<path d="M64.4722 37.9742C64.4722 38.7511 63.8424 39.3809 63.0655 39.3809C62.2887 39.3809 61.6589 38.7511 61.6589 37.9742C61.6589 37.1974 62.2887 36.5676 63.0655 36.5676C63.8424 36.5676 64.4722 37.1974 64.4722 37.9742Z" fill="#4FB297"/>
<path d="M137.616 37.9742C137.616 38.7511 136.986 39.3809 136.21 39.3809C135.433 39.3809 134.803 38.7511 134.803 37.9742C134.803 37.1974 135.433 36.5676 136.21 36.5676C136.986 36.5676 137.616 37.1974 137.616 37.9742Z" fill="#4FB297"/>
<path d="M40.0908 37.9742C40.0908 38.7511 39.461 39.3809 38.6842 39.3809C37.9073 39.3809 37.2776 38.7511 37.2776 37.9742C37.2776 37.1974 37.9073 36.5676 38.6842 36.5676C39.461 36.5676 40.0908 37.1974 40.0908 37.9742Z" fill="#4FB297"/>
<path d="M186.379 37.9742C186.379 38.7511 185.749 39.3809 184.972 39.3809C184.195 39.3809 183.566 38.7511 183.566 37.9742C183.566 37.1974 184.195 36.5676 184.972 36.5676C185.749 36.5676 186.379 37.1974 186.379 37.9742Z" fill="#4FB297"/>
<path d="M88.8535 37.9742C88.8535 38.7511 88.2237 39.3809 87.4469 39.3809C86.67 39.3809 86.0403 38.7511 86.0403 37.9742C86.0403 37.1974 86.67 36.5676 87.4469 36.5676C88.2237 36.5676 88.8535 37.1974 88.8535 37.9742Z" fill="#4FB297"/>
<path d="M101.044 184.262C101.044 185.039 100.414 185.669 99.6376 185.669C98.8607 185.669 98.2309 185.039 98.2309 184.262C98.2309 183.485 98.8607 182.856 99.6376 182.856C100.414 182.856 101.044 183.485 101.044 184.262Z" fill="#4FB297"/>
<path d="M3.5188 184.262C3.5188 185.039 2.88903 185.669 2.11218 185.669C1.33533 185.669 0.705566 185.039 0.705566 184.262C0.705566 183.485 1.33533 182.856 2.11218 182.856C2.88903 182.856 3.5188 183.485 3.5188 184.262Z" fill="#4FB297"/>
<path d="M149.807 184.262C149.807 185.039 149.177 185.669 148.4 185.669C147.623 185.669 146.994 185.039 146.994 184.262C146.994 183.485 147.623 182.856 148.4 182.856C149.177 182.856 149.807 183.485 149.807 184.262Z" fill="#4FB297"/>
<path d="M52.2815 184.262C52.2815 185.039 51.6517 185.669 50.8749 185.669C50.098 185.669 49.4683 185.039 49.4683 184.262C49.4683 183.485 50.098 182.856 50.8749 182.856C51.6517 182.856 52.2815 183.485 52.2815 184.262Z" fill="#4FB297"/>
<path d="M125.426 184.262C125.426 185.039 124.796 185.669 124.019 185.669C123.242 185.669 122.612 185.039 122.612 184.262C122.612 183.485 123.242 182.856 124.019 182.856C124.796 182.856 125.426 183.485 125.426 184.262Z" fill="#4FB297"/>
<path d="M27.9001 184.262C27.9001 185.039 27.2704 185.669 26.4935 185.669C25.7167 185.669 25.0869 185.039 25.0869 184.262C25.0869 183.485 25.7167 182.856 26.4935 182.856C27.2704 182.856 27.9001 183.485 27.9001 184.262Z" fill="#4FB297"/>
<path d="M174.188 184.262C174.188 185.039 173.558 185.669 172.782 185.669C172.005 185.669 171.375 185.039 171.375 184.262C171.375 183.485 172.005 182.856 172.782 182.856C173.558 182.856 174.188 183.485 174.188 184.262Z" fill="#4FB297"/>
<path d="M76.6628 184.262C76.6628 185.039 76.0331 185.669 75.2562 185.669C74.4794 185.669 73.8496 185.039 73.8496 184.262C73.8496 183.485 74.4794 182.856 75.2562 182.856C76.0331 182.856 76.6628 183.485 76.6628 184.262Z" fill="#4FB297"/>
<path d="M113.235 184.262C113.235 185.039 112.605 185.669 111.828 185.669C111.051 185.669 110.422 185.039 110.422 184.262C110.422 183.485 111.051 182.856 111.828 182.856C112.605 182.856 113.235 183.485 113.235 184.262Z" fill="#4FB297"/>
<path d="M15.7095 184.262C15.7095 185.039 15.0797 185.669 14.3029 185.669C13.526 185.669 12.8962 185.039 12.8962 184.262C12.8962 183.485 13.526 182.856 14.3029 182.856C15.0797 182.856 15.7095 183.485 15.7095 184.262Z" fill="#4FB297"/>
<path d="M161.998 184.262C161.998 185.039 161.368 185.669 160.591 185.669C159.814 185.669 159.184 185.039 159.184 184.262C159.184 183.485 159.814 182.856 160.591 182.856C161.368 182.856 161.998 183.485 161.998 184.262Z" fill="#4FB297"/>
<path d="M64.4722 184.262C64.4722 185.039 63.8424 185.669 63.0655 185.669C62.2887 185.669 61.6589 185.039 61.6589 184.262C61.6589 183.485 62.2887 182.856 63.0655 182.856C63.8424 182.856 64.4722 183.485 64.4722 184.262Z" fill="#4FB297"/>
<path d="M137.616 184.262C137.616 185.039 136.986 185.669 136.21 185.669C135.433 185.669 134.803 185.039 134.803 184.262C134.803 183.485 135.433 182.856 136.21 182.856C136.986 182.856 137.616 183.485 137.616 184.262Z" fill="#4FB297"/>
<path d="M40.0908 184.262C40.0908 185.039 39.461 185.669 38.6842 185.669C37.9073 185.669 37.2776 185.039 37.2776 184.262C37.2776 183.485 37.9073 182.856 38.6842 182.856C39.461 182.856 40.0908 183.485 40.0908 184.262Z" fill="#4FB297"/>
<path d="M186.379 184.262C186.379 185.039 185.749 185.669 184.972 185.669C184.195 185.669 183.566 185.039 183.566 184.262C183.566 183.485 184.195 182.856 184.972 182.856C185.749 182.856 186.379 183.485 186.379 184.262Z" fill="#4FB297"/>
<path d="M88.8535 184.262C88.8535 185.039 88.2237 185.669 87.4469 185.669C86.67 185.669 86.0403 185.039 86.0403 184.262C86.0403 183.485 86.67 182.856 87.4469 182.856C88.2237 182.856 88.8535 183.485 88.8535 184.262Z" fill="#4FB297"/>
<path d="M101.044 86.7369C101.044 87.5138 100.414 88.1435 99.6376 88.1435C98.8607 88.1435 98.2309 87.5138 98.2309 86.7369C98.2309 85.9601 98.8607 85.3303 99.6376 85.3303C100.414 85.3303 101.044 85.9601 101.044 86.7369Z" fill="#4FB297"/>
<path d="M3.5188 86.7369C3.5188 87.5138 2.88903 88.1435 2.11218 88.1435C1.33533 88.1435 0.705566 87.5138 0.705566 86.7369C0.705566 85.9601 1.33533 85.3303 2.11218 85.3303C2.88903 85.3303 3.5188 85.9601 3.5188 86.7369Z" fill="#4FB297"/>
<path d="M149.807 86.7369C149.807 87.5138 149.177 88.1435 148.4 88.1435C147.623 88.1435 146.994 87.5138 146.994 86.7369C146.994 85.9601 147.623 85.3303 148.4 85.3303C149.177 85.3303 149.807 85.9601 149.807 86.7369Z" fill="#4FB297"/>
<path d="M52.2815 86.7369C52.2815 87.5138 51.6517 88.1435 50.8749 88.1435C50.098 88.1435 49.4683 87.5138 49.4683 86.7369C49.4683 85.9601 50.098 85.3303 50.8749 85.3303C51.6517 85.3303 52.2815 85.9601 52.2815 86.7369Z" fill="#4FB297"/>
<path d="M125.426 86.7369C125.426 87.5138 124.796 88.1435 124.019 88.1435C123.242 88.1435 122.612 87.5138 122.612 86.7369C122.612 85.9601 123.242 85.3303 124.019 85.3303C124.796 85.3303 125.426 85.9601 125.426 86.7369Z" fill="#4FB297"/>
<path d="M27.9001 86.7369C27.9001 87.5138 27.2704 88.1435 26.4935 88.1435C25.7167 88.1435 25.0869 87.5138 25.0869 86.7369C25.0869 85.9601 25.7167 85.3303 26.4935 85.3303C27.2704 85.3303 27.9001 85.9601 27.9001 86.7369Z" fill="#4FB297"/>
<path d="M174.188 86.7369C174.188 87.5138 173.558 88.1435 172.782 88.1435C172.005 88.1435 171.375 87.5138 171.375 86.7369C171.375 85.9601 172.005 85.3303 172.782 85.3303C173.558 85.3303 174.188 85.9601 174.188 86.7369Z" fill="#4FB297"/>
<path d="M76.6628 86.7369C76.6628 87.5138 76.0331 88.1435 75.2562 88.1435C74.4794 88.1435 73.8496 87.5138 73.8496 86.7369C73.8496 85.9601 74.4794 85.3303 75.2562 85.3303C76.0331 85.3303 76.6628 85.9601 76.6628 86.7369Z" fill="#4FB297"/>
<path d="M113.235 86.7369C113.235 87.5138 112.605 88.1435 111.828 88.1435C111.051 88.1435 110.422 87.5138 110.422 86.7369C110.422 85.9601 111.051 85.3303 111.828 85.3303C112.605 85.3303 113.235 85.9601 113.235 86.7369Z" fill="#4FB297"/>
<path d="M15.7095 86.7369C15.7095 87.5138 15.0797 88.1435 14.3029 88.1435C13.526 88.1435 12.8962 87.5138 12.8962 86.7369C12.8962 85.9601 13.526 85.3303 14.3029 85.3303C15.0797 85.3303 15.7095 85.9601 15.7095 86.7369Z" fill="#4FB297"/>
<path d="M161.998 86.7369C161.998 87.5138 161.368 88.1435 160.591 88.1435C159.814 88.1435 159.184 87.5138 159.184 86.7369C159.184 85.9601 159.814 85.3303 160.591 85.3303C161.368 85.3303 161.998 85.9601 161.998 86.7369Z" fill="#4FB297"/>
<path d="M64.4722 86.7369C64.4722 87.5138 63.8424 88.1435 63.0655 88.1435C62.2887 88.1435 61.6589 87.5138 61.6589 86.7369C61.6589 85.9601 62.2887 85.3303 63.0655 85.3303C63.8424 85.3303 64.4722 85.9601 64.4722 86.7369Z" fill="#4FB297"/>
<path d="M137.616 86.7369C137.616 87.5138 136.986 88.1435 136.21 88.1435C135.433 88.1435 134.803 87.5138 134.803 86.7369C134.803 85.9601 135.433 85.3303 136.21 85.3303C136.986 85.3303 137.616 85.9601 137.616 86.7369Z" fill="#4FB297"/>
<path d="M40.0908 86.7369C40.0908 87.5138 39.461 88.1435 38.6842 88.1435C37.9073 88.1435 37.2776 87.5138 37.2776 86.7369C37.2776 85.9601 37.9073 85.3303 38.6842 85.3303C39.461 85.3303 40.0908 85.9601 40.0908 86.7369Z" fill="#4FB297"/>
<path d="M186.379 86.7369C186.379 87.5138 185.749 88.1435 184.972 88.1435C184.195 88.1435 183.566 87.5138 183.566 86.7369C183.566 85.9601 184.195 85.3303 184.972 85.3303C185.749 85.3303 186.379 85.9601 186.379 86.7369Z" fill="#4FB297"/>
<path d="M88.8535 86.7369C88.8535 87.5138 88.2237 88.1435 87.4469 88.1435C86.67 88.1435 86.0403 87.5138 86.0403 86.7369C86.0403 85.9601 86.67 85.3303 87.4469 85.3303C88.2237 85.3303 88.8535 85.9601 88.8535 86.7369Z" fill="#4FB297"/>
</svg>
